<mxfile host="app.diagrams.net" modified="2022-11-06T22:12:43.124Z" agent="5.0 (Windows NT 10.0; Win64; x64) AppleWebKit/537.36 (KHTML, like Gecko) Chrome/105.0.0.0 Safari/537.36 OPR/91.0.4516.106" etag="oPrfKcqkIA5plwOJzd9H" version="20.5.1" type="github">
  <diagram id="C5RBs43oDa-KdzZeNtuy" name="Page-1">
    <mxGraphModel dx="1424" dy="771" grid="1" gridSize="10" guides="0" tooltips="1" connect="1" arrows="1" fold="1" page="1" pageScale="1" pageWidth="3000" pageHeight="1500" math="0" shadow="0">
      <root>
        <mxCell id="WIyWlLk6GJQsqaUBKTNV-0" />
        <mxCell id="WIyWlLk6GJQsqaUBKTNV-1" parent="WIyWlLk6GJQsqaUBKTNV-0" />
        <mxCell id="oOCzSW_UTQTpbfUNsKzi-25" value="Pessoa" style="swimlane;fontStyle=2;align=center;verticalAlign=top;childLayout=stackLayout;horizontal=1;startSize=26;horizontalStack=0;resizeParent=1;resizeLast=0;collapsible=1;marginBottom=0;rounded=0;shadow=0;strokeWidth=1;" parent="WIyWlLk6GJQsqaUBKTNV-1" vertex="1">
          <mxGeometry x="1382.5" y="140" width="160" height="162" as="geometry">
            <mxRectangle x="230" y="140" width="160" height="26" as="alternateBounds" />
          </mxGeometry>
        </mxCell>
        <mxCell id="oOCzSW_UTQTpbfUNsKzi-26" value="- Nome : string" style="text;align=left;verticalAlign=top;spacingLeft=4;spacingRight=4;overflow=hidden;rotatable=0;points=[[0,0.5],[1,0.5]];portConstraint=eastwest;" parent="oOCzSW_UTQTpbfUNsKzi-25" vertex="1">
          <mxGeometry y="26" width="160" height="26" as="geometry" />
        </mxCell>
        <mxCell id="oOCzSW_UTQTpbfUNsKzi-27" value="- Email : string" style="text;align=left;verticalAlign=top;spacingLeft=4;spacingRight=4;overflow=hidden;rotatable=0;points=[[0,0.5],[1,0.5]];portConstraint=eastwest;rounded=0;shadow=0;html=0;" parent="oOCzSW_UTQTpbfUNsKzi-25" vertex="1">
          <mxGeometry y="52" width="160" height="26" as="geometry" />
        </mxCell>
        <mxCell id="oOCzSW_UTQTpbfUNsKzi-50" value="- Certificado : int" style="text;align=left;verticalAlign=top;spacingLeft=4;spacingRight=4;overflow=hidden;rotatable=0;points=[[0,0.5],[1,0.5]];portConstraint=eastwest;rounded=0;shadow=0;html=0;" parent="oOCzSW_UTQTpbfUNsKzi-25" vertex="1">
          <mxGeometry y="78" width="160" height="26" as="geometry" />
        </mxCell>
        <mxCell id="oOCzSW_UTQTpbfUNsKzi-29" value="" style="line;html=1;strokeWidth=1;align=left;verticalAlign=middle;spacingTop=-1;spacingLeft=3;spacingRight=3;rotatable=0;labelPosition=right;points=[];portConstraint=eastwest;" parent="oOCzSW_UTQTpbfUNsKzi-25" vertex="1">
          <mxGeometry y="104" width="160" height="6" as="geometry" />
        </mxCell>
        <mxCell id="RAF2JQtJSOFyqMOcKw4j-1" value="+ ValidarCNPJ() : bool" style="text;align=left;verticalAlign=top;spacingLeft=4;spacingRight=4;overflow=hidden;rotatable=0;points=[[0,0.5],[1,0.5]];portConstraint=eastwest;rounded=0;shadow=0;html=0;" parent="oOCzSW_UTQTpbfUNsKzi-25" vertex="1">
          <mxGeometry y="110" width="160" height="26" as="geometry" />
        </mxCell>
        <mxCell id="RAF2JQtJSOFyqMOcKw4j-0" value="+ ValidarCPF() : bool" style="text;align=left;verticalAlign=top;spacingLeft=4;spacingRight=4;overflow=hidden;rotatable=0;points=[[0,0.5],[1,0.5]];portConstraint=eastwest;rounded=0;shadow=0;html=0;" parent="oOCzSW_UTQTpbfUNsKzi-25" vertex="1">
          <mxGeometry y="136" width="160" height="26" as="geometry" />
        </mxCell>
        <mxCell id="7Lx4RhFuK1xh1PYqf9uY-30" value="1" style="edgeStyle=orthogonalEdgeStyle;rounded=0;orthogonalLoop=1;jettySize=auto;html=1;endArrow=diamondThin;endFill=0;endSize=12;" edge="1" parent="WIyWlLk6GJQsqaUBKTNV-1" source="oOCzSW_UTQTpbfUNsKzi-30" target="7Lx4RhFuK1xh1PYqf9uY-6">
          <mxGeometry x="0.9635" y="-10" relative="1" as="geometry">
            <Array as="points">
              <mxPoint x="640" y="776" />
            </Array>
            <mxPoint as="offset" />
          </mxGeometry>
        </mxCell>
        <mxCell id="7Lx4RhFuK1xh1PYqf9uY-31" value="1" style="edgeStyle=orthogonalEdgeStyle;rounded=0;orthogonalLoop=1;jettySize=auto;html=1;endArrow=diamondThin;endFill=0;endSize=12;" edge="1" parent="WIyWlLk6GJQsqaUBKTNV-1" source="oOCzSW_UTQTpbfUNsKzi-30" target="7Lx4RhFuK1xh1PYqf9uY-21">
          <mxGeometry x="0.9682" y="15" relative="1" as="geometry">
            <Array as="points">
              <mxPoint x="870" y="776" />
              <mxPoint x="870" y="610" />
              <mxPoint x="1115" y="610" />
            </Array>
            <mxPoint as="offset" />
          </mxGeometry>
        </mxCell>
        <mxCell id="7Lx4RhFuK1xh1PYqf9uY-38" value="1" style="edgeStyle=orthogonalEdgeStyle;rounded=0;orthogonalLoop=1;jettySize=auto;html=1;endArrow=diamondThin;endFill=0;endSize=12;" edge="1" parent="WIyWlLk6GJQsqaUBKTNV-1" source="oOCzSW_UTQTpbfUNsKzi-30" target="oOCzSW_UTQTpbfUNsKzi-42">
          <mxGeometry x="0.8095" y="-17" relative="1" as="geometry">
            <Array as="points">
              <mxPoint x="1170" y="1008" />
              <mxPoint x="1168" y="1008" />
            </Array>
            <mxPoint as="offset" />
          </mxGeometry>
        </mxCell>
        <mxCell id="oOCzSW_UTQTpbfUNsKzi-30" value="Funcionario" style="swimlane;fontStyle=0;align=center;verticalAlign=top;childLayout=stackLayout;horizontal=1;startSize=26;horizontalStack=0;resizeParent=1;resizeLast=0;collapsible=1;marginBottom=0;rounded=0;shadow=0;strokeWidth=1;" parent="WIyWlLk6GJQsqaUBKTNV-1" vertex="1">
          <mxGeometry x="1062.5" y="620" width="200" height="346" as="geometry">
            <mxRectangle x="130" y="380" width="160" height="26" as="alternateBounds" />
          </mxGeometry>
        </mxCell>
        <mxCell id="oOCzSW_UTQTpbfUNsKzi-31" value="- Nascimento : Data" style="text;align=left;verticalAlign=top;spacingLeft=4;spacingRight=4;overflow=hidden;rotatable=0;points=[[0,0.5],[1,0.5]];portConstraint=eastwest;" parent="oOCzSW_UTQTpbfUNsKzi-30" vertex="1">
          <mxGeometry y="26" width="200" height="26" as="geometry" />
        </mxCell>
        <mxCell id="oOCzSW_UTQTpbfUNsKzi-32" value="- EndereÃ§o : string" style="text;align=left;verticalAlign=top;spacingLeft=4;spacingRight=4;overflow=hidden;rotatable=0;points=[[0,0.5],[1,0.5]];portConstraint=eastwest;rounded=0;shadow=0;html=0;" parent="oOCzSW_UTQTpbfUNsKzi-30" vertex="1">
          <mxGeometry y="52" width="200" height="26" as="geometry" />
        </mxCell>
        <mxCell id="7Lx4RhFuK1xh1PYqf9uY-42" value="- Coordenadas: pair&lt;float,float&gt;" style="text;align=left;verticalAlign=top;spacingLeft=4;spacingRight=4;overflow=hidden;rotatable=0;points=[[0,0.5],[1,0.5]];portConstraint=eastwest;" vertex="1" parent="oOCzSW_UTQTpbfUNsKzi-30">
          <mxGeometry y="78" width="200" height="26" as="geometry" />
        </mxCell>
        <mxCell id="7Lx4RhFuK1xh1PYqf9uY-43" value="- Horario Embarque: pair&lt;int,int&gt;" style="text;align=left;verticalAlign=top;spacingLeft=4;spacingRight=4;overflow=hidden;rotatable=0;points=[[0,0.5],[1,0.5]];portConstraint=eastwest;" vertex="1" parent="oOCzSW_UTQTpbfUNsKzi-30">
          <mxGeometry y="104" width="200" height="26" as="geometry" />
        </mxCell>
        <mxCell id="oOCzSW_UTQTpbfUNsKzi-33" value="- Matricula : int" style="text;align=left;verticalAlign=top;spacingLeft=4;spacingRight=4;overflow=hidden;rotatable=0;points=[[0,0.5],[1,0.5]];portConstraint=eastwest;rounded=0;shadow=0;html=0;" parent="oOCzSW_UTQTpbfUNsKzi-30" vertex="1">
          <mxGeometry y="130" width="200" height="26" as="geometry" />
        </mxCell>
        <mxCell id="oOCzSW_UTQTpbfUNsKzi-34" value="- Registro de salario : list&lt;double&gt;" style="text;align=left;verticalAlign=top;spacingLeft=4;spacingRight=4;overflow=hidden;rotatable=0;points=[[0,0.5],[1,0.5]];portConstraint=eastwest;fontStyle=0" parent="oOCzSW_UTQTpbfUNsKzi-30" vertex="1">
          <mxGeometry y="156" width="200" height="26" as="geometry" />
        </mxCell>
        <mxCell id="oOCzSW_UTQTpbfUNsKzi-35" value="" style="line;html=1;strokeWidth=1;align=left;verticalAlign=middle;spacingTop=-1;spacingLeft=3;spacingRight=3;rotatable=0;labelPosition=right;points=[];portConstraint=eastwest;" parent="oOCzSW_UTQTpbfUNsKzi-30" vertex="1">
          <mxGeometry y="182" width="200" height="8" as="geometry" />
        </mxCell>
        <mxCell id="RAF2JQtJSOFyqMOcKw4j-2" value="+ Admitir() : void" style="text;align=left;verticalAlign=top;spacingLeft=4;spacingRight=4;overflow=hidden;rotatable=0;points=[[0,0.5],[1,0.5]];portConstraint=eastwest;" parent="oOCzSW_UTQTpbfUNsKzi-30" vertex="1">
          <mxGeometry y="190" width="200" height="26" as="geometry" />
        </mxCell>
        <mxCell id="RAF2JQtJSOFyqMOcKw4j-3" value="+ Demitir() : void" style="text;align=left;verticalAlign=top;spacingLeft=4;spacingRight=4;overflow=hidden;rotatable=0;points=[[0,0.5],[1,0.5]];portConstraint=eastwest;rounded=0;shadow=0;html=0;" parent="oOCzSW_UTQTpbfUNsKzi-30" vertex="1">
          <mxGeometry y="216" width="200" height="26" as="geometry" />
        </mxCell>
        <mxCell id="RAF2JQtJSOFyqMOcKw4j-4" value="+ Promover() : void" style="text;align=left;verticalAlign=top;spacingLeft=4;spacingRight=4;overflow=hidden;rotatable=0;points=[[0,0.5],[1,0.5]];portConstraint=eastwest;rounded=0;shadow=0;html=0;" parent="oOCzSW_UTQTpbfUNsKzi-30" vertex="1">
          <mxGeometry y="242" width="200" height="26" as="geometry" />
        </mxCell>
        <mxCell id="RAF2JQtJSOFyqMOcKw4j-6" value="+ getRegistroSalario() : list" style="text;align=left;verticalAlign=top;spacingLeft=4;spacingRight=4;overflow=hidden;rotatable=0;points=[[0,0.5],[1,0.5]];portConstraint=eastwest;fontStyle=0" parent="oOCzSW_UTQTpbfUNsKzi-30" vertex="1">
          <mxGeometry y="268" width="200" height="26" as="geometry" />
        </mxCell>
        <mxCell id="RAF2JQtJSOFyqMOcKw4j-5" value="+ getSalarioAtual() : double" style="text;align=left;verticalAlign=top;spacingLeft=4;spacingRight=4;overflow=hidden;rotatable=0;points=[[0,0.5],[1,0.5]];portConstraint=eastwest;fontStyle=0" parent="oOCzSW_UTQTpbfUNsKzi-30" vertex="1">
          <mxGeometry y="294" width="200" height="26" as="geometry" />
        </mxCell>
        <mxCell id="7Lx4RhFuK1xh1PYqf9uY-41" value="+ setHorarioEmbarque() : void" style="text;align=left;verticalAlign=top;spacingLeft=4;spacingRight=4;overflow=hidden;rotatable=0;points=[[0,0.5],[1,0.5]];portConstraint=eastwest;" vertex="1" parent="oOCzSW_UTQTpbfUNsKzi-30">
          <mxGeometry y="320" width="200" height="26" as="geometry" />
        </mxCell>
        <mxCell id="oOCzSW_UTQTpbfUNsKzi-36" value="" style="endArrow=block;endSize=10;endFill=0;shadow=0;strokeWidth=1;rounded=0;edgeStyle=elbowEdgeStyle;elbow=vertical;" parent="WIyWlLk6GJQsqaUBKTNV-1" source="oOCzSW_UTQTpbfUNsKzi-30" target="oOCzSW_UTQTpbfUNsKzi-25" edge="1">
          <mxGeometry width="160" relative="1" as="geometry">
            <mxPoint x="1352.5" y="475" as="sourcePoint" />
            <mxPoint x="1352.5" y="475" as="targetPoint" />
            <Array as="points">
              <mxPoint x="1270" y="470" />
            </Array>
          </mxGeometry>
        </mxCell>
        <mxCell id="QEdlRoliwSxRggkisAc3-16" style="edgeStyle=orthogonalEdgeStyle;rounded=0;orthogonalLoop=1;jettySize=auto;html=1;endArrow=diamondThin;endFill=1;startSize=0;endSize=12;" parent="WIyWlLk6GJQsqaUBKTNV-1" source="oOCzSW_UTQTpbfUNsKzi-37" target="QEdlRoliwSxRggkisAc3-0" edge="1">
          <mxGeometry relative="1" as="geometry">
            <mxPoint x="1540" y="1077" as="targetPoint" />
            <Array as="points">
              <mxPoint x="1322" y="1077" />
            </Array>
          </mxGeometry>
        </mxCell>
        <mxCell id="oOCzSW_UTQTpbfUNsKzi-37" value="Cliente" style="swimlane;fontStyle=0;align=center;verticalAlign=top;childLayout=stackLayout;horizontal=1;startSize=26;horizontalStack=0;resizeParent=1;resizeLast=0;collapsible=1;marginBottom=0;rounded=0;shadow=0;strokeWidth=1;" parent="WIyWlLk6GJQsqaUBKTNV-1" vertex="1">
          <mxGeometry x="1272.5" y="620" width="160" height="86" as="geometry">
            <mxRectangle x="340" y="380" width="170" height="26" as="alternateBounds" />
          </mxGeometry>
        </mxCell>
        <mxCell id="oOCzSW_UTQTpbfUNsKzi-38" value="- Pessoa juridica : bool" style="text;align=left;verticalAlign=top;spacingLeft=4;spacingRight=4;overflow=hidden;rotatable=0;points=[[0,0.5],[1,0.5]];portConstraint=eastwest;" parent="oOCzSW_UTQTpbfUNsKzi-37" vertex="1">
          <mxGeometry y="26" width="160" height="26" as="geometry" />
        </mxCell>
        <mxCell id="oOCzSW_UTQTpbfUNsKzi-39" value="- Telefone : int" style="text;align=left;verticalAlign=top;spacingLeft=4;spacingRight=4;overflow=hidden;rotatable=0;points=[[0,0.5],[1,0.5]];portConstraint=eastwest;" parent="oOCzSW_UTQTpbfUNsKzi-37" vertex="1">
          <mxGeometry y="52" width="160" height="26" as="geometry" />
        </mxCell>
        <mxCell id="oOCzSW_UTQTpbfUNsKzi-40" value="" style="line;html=1;strokeWidth=1;align=left;verticalAlign=middle;spacingTop=-1;spacingLeft=3;spacingRight=3;rotatable=0;labelPosition=right;points=[];portConstraint=eastwest;" parent="oOCzSW_UTQTpbfUNsKzi-37" vertex="1">
          <mxGeometry y="78" width="160" height="8" as="geometry" />
        </mxCell>
        <mxCell id="oOCzSW_UTQTpbfUNsKzi-41" value="" style="endArrow=block;endSize=10;endFill=0;shadow=0;strokeWidth=1;rounded=0;edgeStyle=elbowEdgeStyle;elbow=vertical;" parent="WIyWlLk6GJQsqaUBKTNV-1" source="oOCzSW_UTQTpbfUNsKzi-37" target="oOCzSW_UTQTpbfUNsKzi-25" edge="1">
          <mxGeometry width="160" relative="1" as="geometry">
            <mxPoint x="1362.5" y="645" as="sourcePoint" />
            <mxPoint x="1462.5" y="543" as="targetPoint" />
            <Array as="points">
              <mxPoint x="1352" y="470" />
            </Array>
          </mxGeometry>
        </mxCell>
        <mxCell id="QEdlRoliwSxRggkisAc3-12" style="edgeStyle=orthogonalEdgeStyle;rounded=0;orthogonalLoop=1;jettySize=auto;html=1;endArrow=diamondThin;endFill=1;endSize=12;" parent="WIyWlLk6GJQsqaUBKTNV-1" source="oOCzSW_UTQTpbfUNsKzi-42" target="QEdlRoliwSxRggkisAc3-0" edge="1">
          <mxGeometry relative="1" as="geometry">
            <mxPoint x="1500" y="1134" as="targetPoint" />
            <Array as="points">
              <mxPoint x="1520" y="1134" />
              <mxPoint x="1520" y="1134" />
            </Array>
          </mxGeometry>
        </mxCell>
        <mxCell id="oOCzSW_UTQTpbfUNsKzi-42" value="Departamento" style="swimlane;fontStyle=0;align=center;verticalAlign=top;childLayout=stackLayout;horizontal=1;startSize=26;horizontalStack=0;resizeParent=1;resizeLast=0;collapsible=1;marginBottom=0;rounded=0;shadow=0;strokeWidth=1;" parent="WIyWlLk6GJQsqaUBKTNV-1" vertex="1">
          <mxGeometry x="1070" y="1010" width="195" height="176" as="geometry">
            <mxRectangle x="550" y="140" width="160" height="26" as="alternateBounds" />
          </mxGeometry>
        </mxCell>
        <mxCell id="oOCzSW_UTQTpbfUNsKzi-43" value="- FuncionÃ¡rios : list&lt;Funcionario&gt;&#xa;- Nome: string" style="text;align=left;verticalAlign=top;spacingLeft=4;spacingRight=4;overflow=hidden;rotatable=0;points=[[0,0.5],[1,0.5]];portConstraint=eastwest;" parent="oOCzSW_UTQTpbfUNsKzi-42" vertex="1">
          <mxGeometry y="26" width="195" height="34" as="geometry" />
        </mxCell>
        <mxCell id="oOCzSW_UTQTpbfUNsKzi-44" value="" style="line;html=1;strokeWidth=1;align=left;verticalAlign=middle;spacingTop=-1;spacingLeft=3;spacingRight=3;rotatable=0;labelPosition=right;points=[];portConstraint=eastwest;" parent="oOCzSW_UTQTpbfUNsKzi-42" vertex="1">
          <mxGeometry y="60" width="195" height="8" as="geometry" />
        </mxCell>
        <mxCell id="RAF2JQtJSOFyqMOcKw4j-21" value="+ addFuncionario() : void" style="text;align=left;verticalAlign=top;spacingLeft=4;spacingRight=4;overflow=hidden;rotatable=0;points=[[0,0.5],[1,0.5]];portConstraint=eastwest;" parent="oOCzSW_UTQTpbfUNsKzi-42" vertex="1">
          <mxGeometry y="68" width="195" height="26" as="geometry" />
        </mxCell>
        <mxCell id="RAF2JQtJSOFyqMOcKw4j-22" value="+ removeFuncionario() : void" style="text;align=left;verticalAlign=top;spacingLeft=4;spacingRight=4;overflow=hidden;rotatable=0;points=[[0,0.5],[1,0.5]];portConstraint=eastwest;" parent="oOCzSW_UTQTpbfUNsKzi-42" vertex="1">
          <mxGeometry y="94" width="195" height="26" as="geometry" />
        </mxCell>
        <mxCell id="QEdlRoliwSxRggkisAc3-47" value="+ Admitir() : void" style="text;align=left;verticalAlign=top;spacingLeft=4;spacingRight=4;overflow=hidden;rotatable=0;points=[[0,0.5],[1,0.5]];portConstraint=eastwest;" parent="oOCzSW_UTQTpbfUNsKzi-42" vertex="1">
          <mxGeometry y="120" width="195" height="26" as="geometry" />
        </mxCell>
        <mxCell id="QEdlRoliwSxRggkisAc3-46" value="+ Demitir() : void" style="text;align=left;verticalAlign=top;spacingLeft=4;spacingRight=4;overflow=hidden;rotatable=0;points=[[0,0.5],[1,0.5]];portConstraint=eastwest;rounded=0;shadow=0;html=0;" parent="oOCzSW_UTQTpbfUNsKzi-42" vertex="1">
          <mxGeometry y="146" width="195" height="26" as="geometry" />
        </mxCell>
        <mxCell id="QEdlRoliwSxRggkisAc3-13" style="edgeStyle=orthogonalEdgeStyle;rounded=0;orthogonalLoop=1;jettySize=auto;html=1;entryX=0;entryY=0.5;entryDx=0;entryDy=0;endArrow=diamondThin;endFill=1;startSize=1;endSize=12;" parent="WIyWlLk6GJQsqaUBKTNV-1" source="oOCzSW_UTQTpbfUNsKzi-46" target="SrNoQwheDIABxhmEImiM-0" edge="1">
          <mxGeometry relative="1" as="geometry">
            <mxPoint x="1497.5" y="994" as="targetPoint" />
          </mxGeometry>
        </mxCell>
        <mxCell id="oOCzSW_UTQTpbfUNsKzi-46" value="Cargo" style="swimlane;fontStyle=0;align=center;verticalAlign=top;childLayout=stackLayout;horizontal=1;startSize=26;horizontalStack=0;resizeParent=1;resizeLast=0;collapsible=1;marginBottom=0;rounded=0;shadow=0;strokeWidth=1;" parent="WIyWlLk6GJQsqaUBKTNV-1" vertex="1">
          <mxGeometry x="1340" y="887" width="190" height="130" as="geometry">
            <mxRectangle x="550" y="140" width="160" height="26" as="alternateBounds" />
          </mxGeometry>
        </mxCell>
        <mxCell id="oOCzSW_UTQTpbfUNsKzi-47" value="- FuncionÃ¡rios : list&lt;Funcionario&gt;&#xa;- Nome: string" style="text;align=left;verticalAlign=top;spacingLeft=4;spacingRight=4;overflow=hidden;rotatable=0;points=[[0,0.5],[1,0.5]];portConstraint=eastwest;" parent="oOCzSW_UTQTpbfUNsKzi-46" vertex="1">
          <mxGeometry y="26" width="190" height="34" as="geometry" />
        </mxCell>
        <mxCell id="oOCzSW_UTQTpbfUNsKzi-48" value="" style="line;html=1;strokeWidth=1;align=left;verticalAlign=middle;spacingTop=-1;spacingLeft=3;spacingRight=3;rotatable=0;labelPosition=right;points=[];portConstraint=eastwest;" parent="oOCzSW_UTQTpbfUNsKzi-46" vertex="1">
          <mxGeometry y="60" width="190" height="8" as="geometry" />
        </mxCell>
        <mxCell id="RAF2JQtJSOFyqMOcKw4j-23" value="+ addFuncionario() : void" style="text;align=left;verticalAlign=top;spacingLeft=4;spacingRight=4;overflow=hidden;rotatable=0;points=[[0,0.5],[1,0.5]];portConstraint=eastwest;" parent="oOCzSW_UTQTpbfUNsKzi-46" vertex="1">
          <mxGeometry y="68" width="190" height="26" as="geometry" />
        </mxCell>
        <mxCell id="RAF2JQtJSOFyqMOcKw4j-24" value="+ removeFuncionario() : void" style="text;align=left;verticalAlign=top;spacingLeft=4;spacingRight=4;overflow=hidden;rotatable=0;points=[[0,0.5],[1,0.5]];portConstraint=eastwest;" parent="oOCzSW_UTQTpbfUNsKzi-46" vertex="1">
          <mxGeometry y="94" width="190" height="26" as="geometry" />
        </mxCell>
        <mxCell id="oOCzSW_UTQTpbfUNsKzi-55" value="" style="endArrow=none;html=1;endSize=12;startArrow=diamondThin;startSize=14;startFill=0;edgeStyle=orthogonalEdgeStyle;rounded=0;exitX=0;exitY=0.5;exitDx=0;exitDy=0;entryX=0.75;entryY=1;entryDx=0;entryDy=0;endFill=0;" parent="WIyWlLk6GJQsqaUBKTNV-1" source="oOCzSW_UTQTpbfUNsKzi-47" target="oOCzSW_UTQTpbfUNsKzi-30" edge="1">
          <mxGeometry relative="1" as="geometry">
            <mxPoint x="1252.5" y="922" as="sourcePoint" />
            <mxPoint x="1232.5" y="812" as="targetPoint" />
          </mxGeometry>
        </mxCell>
        <mxCell id="oOCzSW_UTQTpbfUNsKzi-56" value="1" style="edgeLabel;resizable=0;html=1;align=left;verticalAlign=top;" parent="oOCzSW_UTQTpbfUNsKzi-55" connectable="0" vertex="1">
          <mxGeometry x="-1" relative="1" as="geometry">
            <mxPoint x="-20" as="offset" />
          </mxGeometry>
        </mxCell>
        <mxCell id="oOCzSW_UTQTpbfUNsKzi-57" value="0..*" style="edgeLabel;resizable=0;html=1;align=right;verticalAlign=top;" parent="oOCzSW_UTQTpbfUNsKzi-55" connectable="0" vertex="1">
          <mxGeometry x="1" relative="1" as="geometry">
            <mxPoint x="20" y="14" as="offset" />
          </mxGeometry>
        </mxCell>
        <mxCell id="QEdlRoliwSxRggkisAc3-17" value="0..*" style="edgeLabel;resizable=0;html=1;align=right;verticalAlign=top;" parent="oOCzSW_UTQTpbfUNsKzi-55" connectable="0" vertex="1">
          <mxGeometry x="1" relative="1" as="geometry">
            <mxPoint x="130" y="-178" as="offset" />
          </mxGeometry>
        </mxCell>
        <mxCell id="QEdlRoliwSxRggkisAc3-20" value="0..*" style="edgeLabel;resizable=0;html=1;align=right;verticalAlign=top;" parent="oOCzSW_UTQTpbfUNsKzi-55" connectable="0" vertex="1">
          <mxGeometry x="1" relative="1" as="geometry">
            <mxPoint x="248" y="102" as="offset" />
          </mxGeometry>
        </mxCell>
        <mxCell id="QEdlRoliwSxRggkisAc3-21" value="0..*" style="edgeLabel;resizable=0;html=1;align=right;verticalAlign=top;" parent="oOCzSW_UTQTpbfUNsKzi-55" connectable="0" vertex="1">
          <mxGeometry x="1" relative="1" as="geometry">
            <mxPoint x="68" y="200" as="offset" />
          </mxGeometry>
        </mxCell>
        <mxCell id="QEdlRoliwSxRggkisAc3-49" value="0..*" style="edgeLabel;resizable=0;html=1;align=right;verticalAlign=top;" parent="oOCzSW_UTQTpbfUNsKzi-55" connectable="0" vertex="1">
          <mxGeometry x="1" relative="1" as="geometry">
            <mxPoint x="-140" y="342" as="offset" />
          </mxGeometry>
        </mxCell>
        <mxCell id="QEdlRoliwSxRggkisAc3-50" value="1..*" style="edgeLabel;resizable=0;html=1;align=right;verticalAlign=top;" parent="oOCzSW_UTQTpbfUNsKzi-55" connectable="0" vertex="1">
          <mxGeometry x="1" relative="1" as="geometry">
            <mxPoint x="-342" y="342" as="offset" />
          </mxGeometry>
        </mxCell>
        <mxCell id="QEdlRoliwSxRggkisAc3-51" value="0..*" style="edgeLabel;resizable=0;html=1;align=right;verticalAlign=top;" parent="oOCzSW_UTQTpbfUNsKzi-55" connectable="0" vertex="1">
          <mxGeometry x="1" relative="1" as="geometry">
            <mxPoint x="-482" y="282" as="offset" />
          </mxGeometry>
        </mxCell>
        <mxCell id="QEdlRoliwSxRggkisAc3-56" value="0..*" style="edgeLabel;resizable=0;html=1;align=right;verticalAlign=top;" parent="oOCzSW_UTQTpbfUNsKzi-55" connectable="0" vertex="1">
          <mxGeometry x="1" relative="1" as="geometry">
            <mxPoint x="-362" y="232" as="offset" />
          </mxGeometry>
        </mxCell>
        <mxCell id="oLHwqm6MAmRIhUtxEYDU-0" value="0..*" style="edgeLabel;resizable=0;html=1;align=right;verticalAlign=top;" parent="oOCzSW_UTQTpbfUNsKzi-55" connectable="0" vertex="1">
          <mxGeometry x="1" relative="1" as="geometry">
            <mxPoint x="70" y="-168" as="offset" />
          </mxGeometry>
        </mxCell>
        <mxCell id="zGkXYQqygLCUayVq4Tud-6" value="0..*" style="edgeLabel;resizable=0;html=1;align=right;verticalAlign=top;" parent="oOCzSW_UTQTpbfUNsKzi-55" connectable="0" vertex="1">
          <mxGeometry x="1" relative="1" as="geometry">
            <mxPoint x="-752" y="144" as="offset" />
          </mxGeometry>
        </mxCell>
        <mxCell id="RAF2JQtJSOFyqMOcKw4j-7" value="" style="endArrow=diamondThin;html=1;startArrow=none;startFill=0;edgeStyle=orthogonalEdgeStyle;rounded=0;entryX=0;entryY=0.5;entryDx=0;entryDy=0;exitX=0.5;exitY=0;exitDx=0;exitDy=0;endFill=1;endSize=12;" parent="WIyWlLk6GJQsqaUBKTNV-1" source="RAF2JQtJSOFyqMOcKw4j-9" target="RAF2JQtJSOFyqMOcKw4j-2" edge="1">
          <mxGeometry x="0.0769" y="100" relative="1" as="geometry">
            <mxPoint x="912.5" y="842" as="sourcePoint" />
            <mxPoint x="1062.5" y="782" as="targetPoint" />
            <mxPoint as="offset" />
            <Array as="points">
              <mxPoint x="972.5" y="793" />
            </Array>
          </mxGeometry>
        </mxCell>
        <mxCell id="RAF2JQtJSOFyqMOcKw4j-8" value="1" style="edgeLabel;resizable=0;html=1;align=left;verticalAlign=top;" parent="RAF2JQtJSOFyqMOcKw4j-7" connectable="0" vertex="1">
          <mxGeometry x="-1" relative="1" as="geometry">
            <mxPoint x="80" y="-89" as="offset" />
          </mxGeometry>
        </mxCell>
        <mxCell id="RAF2JQtJSOFyqMOcKw4j-9" value="AdmissÃ£o" style="swimlane;fontStyle=0;align=center;verticalAlign=top;childLayout=stackLayout;horizontal=1;startSize=26;horizontalStack=0;resizeParent=1;resizeLast=0;collapsible=1;marginBottom=0;rounded=0;shadow=0;strokeWidth=1;" parent="WIyWlLk6GJQsqaUBKTNV-1" vertex="1">
          <mxGeometry x="892.5" y="882" width="160" height="90" as="geometry">
            <mxRectangle x="550" y="140" width="160" height="26" as="alternateBounds" />
          </mxGeometry>
        </mxCell>
        <mxCell id="RAF2JQtJSOFyqMOcKw4j-10" value="- Data : Data" style="text;align=left;verticalAlign=top;spacingLeft=4;spacingRight=4;overflow=hidden;rotatable=0;points=[[0,0.5],[1,0.5]];portConstraint=eastwest;" parent="RAF2JQtJSOFyqMOcKw4j-9" vertex="1">
          <mxGeometry y="26" width="160" height="24" as="geometry" />
        </mxCell>
        <mxCell id="RAF2JQtJSOFyqMOcKw4j-27" value="- SalarioInicial : double" style="text;align=left;verticalAlign=top;spacingLeft=4;spacingRight=4;overflow=hidden;rotatable=0;points=[[0,0.5],[1,0.5]];portConstraint=eastwest;" parent="RAF2JQtJSOFyqMOcKw4j-9" vertex="1">
          <mxGeometry y="50" width="160" height="30" as="geometry" />
        </mxCell>
        <mxCell id="RAF2JQtJSOFyqMOcKw4j-11" value="" style="line;html=1;strokeWidth=1;align=left;verticalAlign=middle;spacingTop=-1;spacingLeft=3;spacingRight=3;rotatable=0;labelPosition=right;points=[];portConstraint=eastwest;" parent="RAF2JQtJSOFyqMOcKw4j-9" vertex="1">
          <mxGeometry y="80" width="160" height="10" as="geometry" />
        </mxCell>
        <mxCell id="RAF2JQtJSOFyqMOcKw4j-14" value="1..*" style="text;html=1;align=center;verticalAlign=middle;resizable=0;points=[];autosize=1;strokeColor=none;fillColor=none;" parent="WIyWlLk6GJQsqaUBKTNV-1" vertex="1">
          <mxGeometry x="972.5" y="857" width="40" height="30" as="geometry" />
        </mxCell>
        <mxCell id="RAF2JQtJSOFyqMOcKw4j-15" value="DemissÃ£o" style="swimlane;fontStyle=0;align=center;verticalAlign=top;childLayout=stackLayout;horizontal=1;startSize=26;horizontalStack=0;resizeParent=1;resizeLast=0;collapsible=1;marginBottom=0;rounded=0;shadow=0;strokeWidth=1;" parent="WIyWlLk6GJQsqaUBKTNV-1" vertex="1">
          <mxGeometry x="892.5" y="692" width="160" height="60" as="geometry">
            <mxRectangle x="550" y="140" width="160" height="26" as="alternateBounds" />
          </mxGeometry>
        </mxCell>
        <mxCell id="RAF2JQtJSOFyqMOcKw4j-16" value="- Data : Data" style="text;align=left;verticalAlign=top;spacingLeft=4;spacingRight=4;overflow=hidden;rotatable=0;points=[[0,0.5],[1,0.5]];portConstraint=eastwest;" parent="RAF2JQtJSOFyqMOcKw4j-15" vertex="1">
          <mxGeometry y="26" width="160" height="24" as="geometry" />
        </mxCell>
        <mxCell id="RAF2JQtJSOFyqMOcKw4j-17" value="" style="line;html=1;strokeWidth=1;align=left;verticalAlign=middle;spacingTop=-1;spacingLeft=3;spacingRight=3;rotatable=0;labelPosition=right;points=[];portConstraint=eastwest;" parent="RAF2JQtJSOFyqMOcKw4j-15" vertex="1">
          <mxGeometry y="50" width="160" height="10" as="geometry" />
        </mxCell>
        <mxCell id="RAF2JQtJSOFyqMOcKw4j-18" value="" style="endArrow=diamondThin;html=1;endSize=12;startArrow=none;startSize=14;startFill=0;edgeStyle=orthogonalEdgeStyle;rounded=0;exitX=0.5;exitY=0;exitDx=0;exitDy=0;endFill=1;" parent="WIyWlLk6GJQsqaUBKTNV-1" source="RAF2JQtJSOFyqMOcKw4j-15" edge="1">
          <mxGeometry relative="1" as="geometry">
            <mxPoint x="1022.5" y="692" as="sourcePoint" />
            <mxPoint x="1062.5" y="642" as="targetPoint" />
            <Array as="points">
              <mxPoint x="972.5" y="642" />
            </Array>
          </mxGeometry>
        </mxCell>
        <mxCell id="RAF2JQtJSOFyqMOcKw4j-19" value="1" style="edgeLabel;resizable=0;html=1;align=left;verticalAlign=top;" parent="RAF2JQtJSOFyqMOcKw4j-18" connectable="0" vertex="1">
          <mxGeometry x="-1" relative="1" as="geometry">
            <mxPoint x="80" y="-50" as="offset" />
          </mxGeometry>
        </mxCell>
        <mxCell id="RAF2JQtJSOFyqMOcKw4j-28" value="CalendÃ¡rio" style="swimlane;fontStyle=2;align=center;verticalAlign=top;childLayout=stackLayout;horizontal=1;startSize=26;horizontalStack=0;resizeParent=1;resizeLast=0;collapsible=1;marginBottom=0;rounded=0;shadow=0;strokeWidth=1;" parent="WIyWlLk6GJQsqaUBKTNV-1" vertex="1">
          <mxGeometry x="610" y="30" width="200" height="136" as="geometry">
            <mxRectangle x="230" y="140" width="160" height="26" as="alternateBounds" />
          </mxGeometry>
        </mxCell>
        <mxCell id="RAF2JQtJSOFyqMOcKw4j-29" value="- Data de DissÃ­dio : Data" style="text;align=left;verticalAlign=top;spacingLeft=4;spacingRight=4;overflow=hidden;rotatable=0;points=[[0,0.5],[1,0.5]];portConstraint=eastwest;" parent="RAF2JQtJSOFyqMOcKw4j-28" vertex="1">
          <mxGeometry y="26" width="200" height="26" as="geometry" />
        </mxCell>
        <mxCell id="QEdlRoliwSxRggkisAc3-22" value="- Valor de DissÃ­dio: double" style="text;align=left;verticalAlign=top;spacingLeft=4;spacingRight=4;overflow=hidden;rotatable=0;points=[[0,0.5],[1,0.5]];portConstraint=eastwest;" parent="RAF2JQtJSOFyqMOcKw4j-28" vertex="1">
          <mxGeometry y="52" width="200" height="26" as="geometry" />
        </mxCell>
        <mxCell id="RAF2JQtJSOFyqMOcKw4j-37" value="- FuncionÃ¡rios : list&lt;Funcionario&gt;" style="text;align=left;verticalAlign=top;spacingLeft=4;spacingRight=4;overflow=hidden;rotatable=0;points=[[0,0.5],[1,0.5]];portConstraint=eastwest;" parent="RAF2JQtJSOFyqMOcKw4j-28" vertex="1">
          <mxGeometry y="78" width="200" height="26" as="geometry" />
        </mxCell>
        <mxCell id="RAF2JQtJSOFyqMOcKw4j-32" value="" style="line;html=1;strokeWidth=1;align=left;verticalAlign=middle;spacingTop=-1;spacingLeft=3;spacingRight=3;rotatable=0;labelPosition=right;points=[];portConstraint=eastwest;" parent="RAF2JQtJSOFyqMOcKw4j-28" vertex="1">
          <mxGeometry y="104" width="200" height="6" as="geometry" />
        </mxCell>
        <mxCell id="RAF2JQtJSOFyqMOcKw4j-33" value="+ dissidioColetivo : void" style="text;align=left;verticalAlign=top;spacingLeft=4;spacingRight=4;overflow=hidden;rotatable=0;points=[[0,0.5],[1,0.5]];portConstraint=eastwest;rounded=0;shadow=0;html=0;" parent="RAF2JQtJSOFyqMOcKw4j-28" vertex="1">
          <mxGeometry y="110" width="200" height="26" as="geometry" />
        </mxCell>
        <mxCell id="fGHLAxg98W035_RI9zrS-1" value="0..*" style="text;html=1;align=center;verticalAlign=middle;resizable=0;points=[];autosize=1;strokeColor=none;fillColor=none;" parent="WIyWlLk6GJQsqaUBKTNV-1" vertex="1">
          <mxGeometry x="972.5" y="670" width="40" height="30" as="geometry" />
        </mxCell>
        <mxCell id="QEdlRoliwSxRggkisAc3-14" style="edgeStyle=orthogonalEdgeStyle;rounded=0;orthogonalLoop=1;jettySize=auto;html=1;endArrow=diamondThin;endFill=1;startSize=1;endSize=12;" parent="WIyWlLk6GJQsqaUBKTNV-1" source="4qoAJS4f5IXlfI-FcJuV-1" target="QEdlRoliwSxRggkisAc3-0" edge="1">
          <mxGeometry relative="1" as="geometry">
            <Array as="points">
              <mxPoint x="2250" y="1030" />
            </Array>
          </mxGeometry>
        </mxCell>
        <mxCell id="Y2uixVk514McfuugYgpd-0" style="edgeStyle=orthogonalEdgeStyle;rounded=0;orthogonalLoop=1;jettySize=auto;html=1;endArrow=diamondThin;endFill=0;startSize=12;endSize=12;" parent="WIyWlLk6GJQsqaUBKTNV-1" source="4qoAJS4f5IXlfI-FcJuV-1" target="2bF-VOdr1F6drvu_YguW-36" edge="1">
          <mxGeometry relative="1" as="geometry">
            <Array as="points">
              <mxPoint x="2360" y="832" />
              <mxPoint x="2840" y="832" />
              <mxPoint x="2840" y="297" />
            </Array>
          </mxGeometry>
        </mxCell>
        <mxCell id="Y2uixVk514McfuugYgpd-1" style="edgeStyle=orthogonalEdgeStyle;rounded=0;orthogonalLoop=1;jettySize=auto;html=1;endArrow=diamondThin;endFill=0;startSize=12;endSize=12;" parent="WIyWlLk6GJQsqaUBKTNV-1" source="4qoAJS4f5IXlfI-FcJuV-1" target="2bF-VOdr1F6drvu_YguW-41" edge="1">
          <mxGeometry relative="1" as="geometry">
            <Array as="points">
              <mxPoint x="2350" y="1042" />
              <mxPoint x="2260" y="1042" />
            </Array>
          </mxGeometry>
        </mxCell>
        <mxCell id="4qoAJS4f5IXlfI-FcJuV-1" value="Produto" style="swimlane;fontStyle=0;align=center;verticalAlign=top;childLayout=stackLayout;horizontal=1;startSize=26;horizontalStack=0;resizeParent=1;resizeLast=0;collapsible=1;marginBottom=0;rounded=0;shadow=0;strokeWidth=1;" parent="WIyWlLk6GJQsqaUBKTNV-1" vertex="1">
          <mxGeometry x="2162.5" y="418" width="200" height="328" as="geometry">
            <mxRectangle x="130" y="380" width="160" height="26" as="alternateBounds" />
          </mxGeometry>
        </mxCell>
        <mxCell id="4qoAJS4f5IXlfI-FcJuV-2" value="- Nome : string" style="text;align=left;verticalAlign=top;spacingLeft=4;spacingRight=4;overflow=hidden;rotatable=0;points=[[0,0.5],[1,0.5]];portConstraint=eastwest;" parent="4qoAJS4f5IXlfI-FcJuV-1" vertex="1">
          <mxGeometry y="26" width="200" height="26" as="geometry" />
        </mxCell>
        <mxCell id="4qoAJS4f5IXlfI-FcJuV-3" value="- CÃ³digo : int" style="text;align=left;verticalAlign=top;spacingLeft=4;spacingRight=4;overflow=hidden;rotatable=0;points=[[0,0.5],[1,0.5]];portConstraint=eastwest;rounded=0;shadow=0;html=0;" parent="4qoAJS4f5IXlfI-FcJuV-1" vertex="1">
          <mxGeometry y="52" width="200" height="26" as="geometry" />
        </mxCell>
        <mxCell id="4qoAJS4f5IXlfI-FcJuV-4" value="- Valor : map&lt;data, double&gt;" style="text;align=left;verticalAlign=top;spacingLeft=4;spacingRight=4;overflow=hidden;rotatable=0;points=[[0,0.5],[1,0.5]];portConstraint=eastwest;rounded=0;shadow=0;html=0;" parent="4qoAJS4f5IXlfI-FcJuV-1" vertex="1">
          <mxGeometry y="78" width="200" height="26" as="geometry" />
        </mxCell>
        <mxCell id="4qoAJS4f5IXlfI-FcJuV-5" value="- Categoria : String" style="text;align=left;verticalAlign=top;spacingLeft=4;spacingRight=4;overflow=hidden;rotatable=0;points=[[0,0.5],[1,0.5]];portConstraint=eastwest;fontStyle=0" parent="4qoAJS4f5IXlfI-FcJuV-1" vertex="1">
          <mxGeometry y="104" width="200" height="26" as="geometry" />
        </mxCell>
        <mxCell id="4qoAJS4f5IXlfI-FcJuV-25" value="- Tamanho do Lote mÃ­n. : int" style="text;align=left;verticalAlign=top;spacingLeft=4;spacingRight=4;overflow=hidden;rotatable=0;points=[[0,0.5],[1,0.5]];portConstraint=eastwest;fontStyle=0" parent="4qoAJS4f5IXlfI-FcJuV-1" vertex="1">
          <mxGeometry y="130" width="200" height="26" as="geometry" />
        </mxCell>
        <mxCell id="4qoAJS4f5IXlfI-FcJuV-26" value="- Estoque mÃ­n : int" style="text;align=left;verticalAlign=top;spacingLeft=4;spacingRight=4;overflow=hidden;rotatable=0;points=[[0,0.5],[1,0.5]];portConstraint=eastwest;fontStyle=0" parent="4qoAJS4f5IXlfI-FcJuV-1" vertex="1">
          <mxGeometry y="156" width="200" height="26" as="geometry" />
        </mxCell>
        <mxCell id="i1Fe18vsGUUTbD_PkYSo-1" value="&amp;nbsp;- Quantidade Total : int" style="text;html=1;resizable=0;autosize=1;align=left;verticalAlign=middle;points=[];fillColor=none;strokeColor=none;rounded=0;" parent="4qoAJS4f5IXlfI-FcJuV-1" vertex="1">
          <mxGeometry y="182" width="200" height="30" as="geometry" />
        </mxCell>
        <mxCell id="i1Fe18vsGUUTbD_PkYSo-2" value="&amp;nbsp;- Qtd por lote : list&amp;lt;pair&amp;lt;int,int&amp;gt;&amp;gt;" style="text;html=1;resizable=0;autosize=1;align=left;verticalAlign=middle;points=[];fillColor=none;strokeColor=none;rounded=0;" parent="4qoAJS4f5IXlfI-FcJuV-1" vertex="1">
          <mxGeometry y="212" width="200" height="30" as="geometry" />
        </mxCell>
        <mxCell id="4qoAJS4f5IXlfI-FcJuV-6" value="" style="line;html=1;strokeWidth=1;align=left;verticalAlign=middle;spacingTop=-1;spacingLeft=3;spacingRight=3;rotatable=0;labelPosition=right;points=[];portConstraint=eastwest;" parent="4qoAJS4f5IXlfI-FcJuV-1" vertex="1">
          <mxGeometry y="242" width="200" height="8" as="geometry" />
        </mxCell>
        <mxCell id="4qoAJS4f5IXlfI-FcJuV-7" value="+ Vender() : void" style="text;align=left;verticalAlign=top;spacingLeft=4;spacingRight=4;overflow=hidden;rotatable=0;points=[[0,0.5],[1,0.5]];portConstraint=eastwest;" parent="4qoAJS4f5IXlfI-FcJuV-1" vertex="1">
          <mxGeometry y="250" width="200" height="26" as="geometry" />
        </mxCell>
        <mxCell id="4qoAJS4f5IXlfI-FcJuV-8" value="+ addLote() : void" style="text;align=left;verticalAlign=top;spacingLeft=4;spacingRight=4;overflow=hidden;rotatable=0;points=[[0,0.5],[1,0.5]];portConstraint=eastwest;rounded=0;shadow=0;html=0;" parent="4qoAJS4f5IXlfI-FcJuV-1" vertex="1">
          <mxGeometry y="276" width="200" height="26" as="geometry" />
        </mxCell>
        <mxCell id="4qoAJS4f5IXlfI-FcJuV-9" value="+ Ordem de ProduÃ§Ã£o() : void" style="text;align=left;verticalAlign=top;spacingLeft=4;spacingRight=4;overflow=hidden;rotatable=0;points=[[0,0.5],[1,0.5]];portConstraint=eastwest;rounded=0;shadow=0;html=0;" parent="4qoAJS4f5IXlfI-FcJuV-1" vertex="1">
          <mxGeometry y="302" width="200" height="26" as="geometry" />
        </mxCell>
        <mxCell id="4qoAJS4f5IXlfI-FcJuV-50" value="1" style="edgeStyle=orthogonalEdgeStyle;rounded=0;sketch=0;orthogonalLoop=1;jettySize=auto;html=1;shadow=0;strokeColor=default;endArrow=diamondThin;endFill=0;sourcePerimeterSpacing=0;endSize=12;" parent="WIyWlLk6GJQsqaUBKTNV-1" source="4qoAJS4f5IXlfI-FcJuV-27" target="4qoAJS4f5IXlfI-FcJuV-1" edge="1">
          <mxGeometry x="0.8692" y="-17" relative="1" as="geometry">
            <mxPoint x="2242.5" y="772" as="targetPoint" />
            <mxPoint as="offset" />
            <Array as="points">
              <mxPoint x="2263" y="822" />
              <mxPoint x="2263" y="822" />
            </Array>
          </mxGeometry>
        </mxCell>
        <mxCell id="na4zE1RvKp3kwFDyWadK-6" style="edgeStyle=orthogonalEdgeStyle;rounded=0;orthogonalLoop=1;jettySize=auto;html=1;strokeWidth=1;endArrow=diamondThin;endFill=1;endSize=12;" parent="WIyWlLk6GJQsqaUBKTNV-1" source="4qoAJS4f5IXlfI-FcJuV-27" target="QEdlRoliwSxRggkisAc3-0" edge="1">
          <mxGeometry relative="1" as="geometry">
            <Array as="points">
              <mxPoint x="2110" y="1050" />
            </Array>
          </mxGeometry>
        </mxCell>
        <mxCell id="4qoAJS4f5IXlfI-FcJuV-27" value="Venda" style="swimlane;fontStyle=0;align=center;verticalAlign=top;childLayout=stackLayout;horizontal=1;startSize=26;horizontalStack=0;resizeParent=1;resizeLast=0;collapsible=1;marginBottom=0;rounded=0;shadow=0;strokeWidth=1;" parent="WIyWlLk6GJQsqaUBKTNV-1" vertex="1">
          <mxGeometry x="2070" y="867" width="160" height="120" as="geometry">
            <mxRectangle x="550" y="140" width="160" height="26" as="alternateBounds" />
          </mxGeometry>
        </mxCell>
        <mxCell id="4qoAJS4f5IXlfI-FcJuV-28" value="- Data : Data" style="text;align=left;verticalAlign=top;spacingLeft=4;spacingRight=4;overflow=hidden;rotatable=0;points=[[0,0.5],[1,0.5]];portConstraint=eastwest;" parent="4qoAJS4f5IXlfI-FcJuV-27" vertex="1">
          <mxGeometry y="26" width="160" height="24" as="geometry" />
        </mxCell>
        <mxCell id="4qoAJS4f5IXlfI-FcJuV-29" value="- Quantidade : int" style="text;align=left;verticalAlign=top;spacingLeft=4;spacingRight=4;overflow=hidden;rotatable=0;points=[[0,0.5],[1,0.5]];portConstraint=eastwest;" parent="4qoAJS4f5IXlfI-FcJuV-27" vertex="1">
          <mxGeometry y="50" width="160" height="30" as="geometry" />
        </mxCell>
        <mxCell id="uIYZ0VYp6j5XHHKCWPDb-6" value="- Valor : double" style="text;align=left;verticalAlign=top;spacingLeft=4;spacingRight=4;overflow=hidden;rotatable=0;points=[[0,0.5],[1,0.5]];portConstraint=eastwest;" parent="4qoAJS4f5IXlfI-FcJuV-27" vertex="1">
          <mxGeometry y="80" width="160" height="30" as="geometry" />
        </mxCell>
        <mxCell id="4qoAJS4f5IXlfI-FcJuV-30" value="" style="line;html=1;strokeWidth=1;align=left;verticalAlign=middle;spacingTop=-1;spacingLeft=3;spacingRight=3;rotatable=0;labelPosition=right;points=[];portConstraint=eastwest;" parent="4qoAJS4f5IXlfI-FcJuV-27" vertex="1">
          <mxGeometry y="110" width="160" height="10" as="geometry" />
        </mxCell>
        <mxCell id="4qoAJS4f5IXlfI-FcJuV-52" value="1" style="edgeStyle=orthogonalEdgeStyle;rounded=0;sketch=0;orthogonalLoop=1;jettySize=auto;html=1;shadow=0;strokeColor=default;endArrow=diamondThin;endFill=0;sourcePerimeterSpacing=0;endSize=12;" parent="WIyWlLk6GJQsqaUBKTNV-1" source="4qoAJS4f5IXlfI-FcJuV-35" target="4qoAJS4f5IXlfI-FcJuV-1" edge="1">
          <mxGeometry x="0.8974" y="-15" relative="1" as="geometry">
            <mxPoint as="offset" />
            <Array as="points">
              <mxPoint x="2440" y="582" />
            </Array>
          </mxGeometry>
        </mxCell>
        <mxCell id="4qoAJS4f5IXlfI-FcJuV-35" value="Lote" style="swimlane;fontStyle=0;align=center;verticalAlign=top;childLayout=stackLayout;horizontal=1;startSize=26;horizontalStack=0;resizeParent=1;resizeLast=0;collapsible=1;marginBottom=0;rounded=0;shadow=0;strokeWidth=1;" parent="WIyWlLk6GJQsqaUBKTNV-1" vertex="1">
          <mxGeometry x="2392.5" y="622" width="237.5" height="202" as="geometry">
            <mxRectangle x="550" y="140" width="160" height="26" as="alternateBounds" />
          </mxGeometry>
        </mxCell>
        <mxCell id="4qoAJS4f5IXlfI-FcJuV-36" value="- Data : Data" style="text;align=left;verticalAlign=top;spacingLeft=4;spacingRight=4;overflow=hidden;rotatable=0;points=[[0,0.5],[1,0.5]];portConstraint=eastwest;" parent="4qoAJS4f5IXlfI-FcJuV-35" vertex="1">
          <mxGeometry y="26" width="237.5" height="24" as="geometry" />
        </mxCell>
        <mxCell id="4qoAJS4f5IXlfI-FcJuV-37" value="- Numero : int" style="text;align=left;verticalAlign=top;spacingLeft=4;spacingRight=4;overflow=hidden;rotatable=0;points=[[0,0.5],[1,0.5]];portConstraint=eastwest;" parent="4qoAJS4f5IXlfI-FcJuV-35" vertex="1">
          <mxGeometry y="50" width="237.5" height="30" as="geometry" />
        </mxCell>
        <mxCell id="4qoAJS4f5IXlfI-FcJuV-45" value="- CÃ³digo do Produto : intÂ " style="text;align=left;verticalAlign=top;spacingLeft=4;spacingRight=4;overflow=hidden;rotatable=0;points=[[0,0.5],[1,0.5]];portConstraint=eastwest;" parent="4qoAJS4f5IXlfI-FcJuV-35" vertex="1">
          <mxGeometry y="80" width="237.5" height="30" as="geometry" />
        </mxCell>
        <mxCell id="4qoAJS4f5IXlfI-FcJuV-46" value="- Quantidade : int" style="text;align=left;verticalAlign=top;spacingLeft=4;spacingRight=4;overflow=hidden;rotatable=0;points=[[0,0.5],[1,0.5]];portConstraint=eastwest;" parent="4qoAJS4f5IXlfI-FcJuV-35" vertex="1">
          <mxGeometry y="110" width="237.5" height="30" as="geometry" />
        </mxCell>
        <mxCell id="4qoAJS4f5IXlfI-FcJuV-38" value="" style="line;html=1;strokeWidth=1;align=left;verticalAlign=middle;spacingTop=-1;spacingLeft=3;spacingRight=3;rotatable=0;labelPosition=right;points=[];portConstraint=eastwest;" parent="4qoAJS4f5IXlfI-FcJuV-35" vertex="1">
          <mxGeometry y="140" width="237.5" height="10" as="geometry" />
        </mxCell>
        <mxCell id="D_1TLd0i7CIZFXxmKJXh-1" value="+ ReduzirMateriaPrima() : void" style="text;align=left;verticalAlign=top;spacingLeft=4;spacingRight=4;overflow=hidden;rotatable=0;points=[[0,0.5],[1,0.5]];portConstraint=eastwest;" parent="4qoAJS4f5IXlfI-FcJuV-35" vertex="1">
          <mxGeometry y="150" width="237.5" height="26" as="geometry" />
        </mxCell>
        <mxCell id="4qoAJS4f5IXlfI-FcJuV-48" value="0..*" style="edgeStyle=orthogonalEdgeStyle;orthogonalLoop=1;jettySize=auto;html=1;endArrow=none;endFill=0;sourcePerimeterSpacing=0;strokeColor=default;rounded=0;shadow=0;sketch=0;" parent="WIyWlLk6GJQsqaUBKTNV-1" source="oOCzSW_UTQTpbfUNsKzi-37" target="4qoAJS4f5IXlfI-FcJuV-27" edge="1">
          <mxGeometry x="0.9723" y="7" relative="1" as="geometry">
            <mxPoint as="offset" />
            <Array as="points">
              <mxPoint x="1410" y="880" />
            </Array>
            <mxPoint x="2030" y="880" as="targetPoint" />
          </mxGeometry>
        </mxCell>
        <mxCell id="4qoAJS4f5IXlfI-FcJuV-51" value="1..*" style="edgeStyle=orthogonalEdgeStyle;rounded=0;sketch=0;orthogonalLoop=1;jettySize=auto;html=1;shadow=0;strokeColor=default;endArrow=none;endFill=0;sourcePerimeterSpacing=0;" parent="WIyWlLk6GJQsqaUBKTNV-1" source="4qoAJS4f5IXlfI-FcJuV-29" target="4qoAJS4f5IXlfI-FcJuV-35" edge="1">
          <mxGeometry x="0.8796" y="-10" relative="1" as="geometry">
            <mxPoint x="2442.5" y="771.9999999999999" as="targetPoint" />
            <mxPoint as="offset" />
            <Array as="points">
              <mxPoint x="2430" y="932" />
            </Array>
          </mxGeometry>
        </mxCell>
        <mxCell id="QEdlRoliwSxRggkisAc3-11" style="edgeStyle=orthogonalEdgeStyle;rounded=0;orthogonalLoop=1;jettySize=auto;html=1;endArrow=diamondThin;endFill=1;endSize=12;" parent="WIyWlLk6GJQsqaUBKTNV-1" source="oOCzSW_UTQTpbfUNsKzi-30" target="QEdlRoliwSxRggkisAc3-0" edge="1">
          <mxGeometry relative="1" as="geometry">
            <Array as="points">
              <mxPoint x="1292" y="819" />
              <mxPoint x="1292" y="1112" />
            </Array>
            <mxPoint x="1402.5" y="1117" as="targetPoint" />
          </mxGeometry>
        </mxCell>
        <mxCell id="QEdlRoliwSxRggkisAc3-0" value="Empresa" style="swimlane;fontStyle=0;align=center;verticalAlign=top;childLayout=stackLayout;horizontal=1;startSize=26;horizontalStack=0;resizeParent=1;resizeLast=0;collapsible=1;marginBottom=0;rounded=0;shadow=0;strokeWidth=1;" parent="WIyWlLk6GJQsqaUBKTNV-1" vertex="1">
          <mxGeometry x="1612.5" y="984" width="190" height="240" as="geometry">
            <mxRectangle x="130" y="380" width="160" height="26" as="alternateBounds" />
          </mxGeometry>
        </mxCell>
        <mxCell id="QEdlRoliwSxRggkisAc3-59" value="- Nome: string" style="text;align=left;verticalAlign=top;spacingLeft=4;spacingRight=4;overflow=hidden;rotatable=0;points=[[0,0.5],[1,0.5]];portConstraint=eastwest;" parent="QEdlRoliwSxRggkisAc3-0" vertex="1">
          <mxGeometry y="26" width="190" height="24" as="geometry" />
        </mxCell>
        <mxCell id="SrNoQwheDIABxhmEImiM-0" value="- Instance : Empresa*" style="text;align=left;verticalAlign=top;spacingLeft=4;spacingRight=4;overflow=hidden;rotatable=0;points=[[0,0.5],[1,0.5]];portConstraint=eastwest;" parent="QEdlRoliwSxRggkisAc3-0" vertex="1">
          <mxGeometry y="50" width="190" height="24" as="geometry" />
        </mxCell>
        <mxCell id="QEdlRoliwSxRggkisAc3-5" value="" style="line;html=1;strokeWidth=1;align=left;verticalAlign=middle;spacingTop=-1;spacingLeft=3;spacingRight=3;rotatable=0;labelPosition=right;points=[];portConstraint=eastwest;" parent="QEdlRoliwSxRggkisAc3-0" vertex="1">
          <mxGeometry y="74" width="190" height="10" as="geometry" />
        </mxCell>
        <mxCell id="QEdlRoliwSxRggkisAc3-58" value="+ Vender() : void" style="text;align=left;verticalAlign=top;spacingLeft=4;spacingRight=4;overflow=hidden;rotatable=0;points=[[0,0.5],[1,0.5]];portConstraint=eastwest;" parent="QEdlRoliwSxRggkisAc3-0" vertex="1">
          <mxGeometry y="84" width="190" height="26" as="geometry" />
        </mxCell>
        <mxCell id="QEdlRoliwSxRggkisAc3-45" value="+ Admitir() : void" style="text;align=left;verticalAlign=top;spacingLeft=4;spacingRight=4;overflow=hidden;rotatable=0;points=[[0,0.5],[1,0.5]];portConstraint=eastwest;" parent="QEdlRoliwSxRggkisAc3-0" vertex="1">
          <mxGeometry y="110" width="190" height="26" as="geometry" />
        </mxCell>
        <mxCell id="QEdlRoliwSxRggkisAc3-44" value="+ Demitir() : void" style="text;align=left;verticalAlign=top;spacingLeft=4;spacingRight=4;overflow=hidden;rotatable=0;points=[[0,0.5],[1,0.5]];portConstraint=eastwest;rounded=0;shadow=0;html=0;" parent="QEdlRoliwSxRggkisAc3-0" vertex="1">
          <mxGeometry y="136" width="190" height="26" as="geometry" />
        </mxCell>
        <mxCell id="QEdlRoliwSxRggkisAc3-43" value="+ Promover() : void" style="text;align=left;verticalAlign=top;spacingLeft=4;spacingRight=4;overflow=hidden;rotatable=0;points=[[0,0.5],[1,0.5]];portConstraint=eastwest;rounded=0;shadow=0;html=0;" parent="QEdlRoliwSxRggkisAc3-0" vertex="1">
          <mxGeometry y="162" width="190" height="26" as="geometry" />
        </mxCell>
        <mxCell id="SrNoQwheDIABxhmEImiM-1" value="- Empresa()" style="text;align=left;verticalAlign=top;spacingLeft=4;spacingRight=4;overflow=hidden;rotatable=0;points=[[0,0.5],[1,0.5]];portConstraint=eastwest;rounded=0;shadow=0;html=0;" parent="QEdlRoliwSxRggkisAc3-0" vertex="1">
          <mxGeometry y="188" width="190" height="26" as="geometry" />
        </mxCell>
        <mxCell id="SrNoQwheDIABxhmEImiM-2" value="+ getInstance() : Empresa*" style="text;align=left;verticalAlign=top;spacingLeft=4;spacingRight=4;overflow=hidden;rotatable=0;points=[[0,0.5],[1,0.5]];portConstraint=eastwest;rounded=0;shadow=0;html=0;" parent="QEdlRoliwSxRggkisAc3-0" vertex="1">
          <mxGeometry y="214" width="190" height="26" as="geometry" />
        </mxCell>
        <mxCell id="QEdlRoliwSxRggkisAc3-27" style="edgeStyle=orthogonalEdgeStyle;rounded=0;orthogonalLoop=1;jettySize=auto;html=1;endArrow=diamondThin;endFill=1;startSize=0;endSize=12;" parent="WIyWlLk6GJQsqaUBKTNV-1" source="QEdlRoliwSxRggkisAc3-25" target="QEdlRoliwSxRggkisAc3-0" edge="1">
          <mxGeometry relative="1" as="geometry">
            <Array as="points">
              <mxPoint x="1312" y="1272" />
              <mxPoint x="1312" y="1174" />
            </Array>
            <mxPoint x="1402.5" y="1174" as="targetPoint" />
          </mxGeometry>
        </mxCell>
        <mxCell id="QEdlRoliwSxRggkisAc3-36" style="edgeStyle=orthogonalEdgeStyle;rounded=0;orthogonalLoop=1;jettySize=auto;html=1;endArrow=none;endFill=0;startSize=0;endSize=12;entryX=1;entryY=0.5;entryDx=0;entryDy=0;exitX=0;exitY=0.5;exitDx=0;exitDy=0;" parent="WIyWlLk6GJQsqaUBKTNV-1" source="QEdlRoliwSxRggkisAc3-31" target="QEdlRoliwSxRggkisAc3-33" edge="1">
          <mxGeometry relative="1" as="geometry">
            <mxPoint x="792.5" y="1355" as="targetPoint" />
            <Array as="points">
              <mxPoint x="843" y="1275" />
              <mxPoint x="843" y="1167" />
            </Array>
          </mxGeometry>
        </mxCell>
        <mxCell id="QEdlRoliwSxRggkisAc3-25" value="Grupo de PermissÃµes" style="swimlane;fontStyle=0;align=center;verticalAlign=top;childLayout=stackLayout;horizontal=1;startSize=26;horizontalStack=0;resizeParent=1;resizeLast=0;collapsible=1;marginBottom=0;rounded=0;shadow=0;strokeWidth=1;" parent="WIyWlLk6GJQsqaUBKTNV-1" vertex="1">
          <mxGeometry x="872.5" y="1232" width="180" height="80" as="geometry">
            <mxRectangle x="130" y="380" width="160" height="26" as="alternateBounds" />
          </mxGeometry>
        </mxCell>
        <mxCell id="QEdlRoliwSxRggkisAc3-31" value="- PermissÃµes: list&lt;string&gt;" style="text;align=left;verticalAlign=top;spacingLeft=4;spacingRight=4;overflow=hidden;rotatable=0;points=[[0,0.5],[1,0.5]];portConstraint=eastwest;" parent="QEdlRoliwSxRggkisAc3-25" vertex="1">
          <mxGeometry y="26" width="180" height="34" as="geometry" />
        </mxCell>
        <mxCell id="QEdlRoliwSxRggkisAc3-26" value="" style="line;html=1;strokeWidth=1;align=left;verticalAlign=middle;spacingTop=-1;spacingLeft=3;spacingRight=3;rotatable=0;labelPosition=right;points=[];portConstraint=eastwest;" parent="QEdlRoliwSxRggkisAc3-25" vertex="1">
          <mxGeometry y="60" width="180" height="10" as="geometry" />
        </mxCell>
        <mxCell id="QEdlRoliwSxRggkisAc3-37" style="edgeStyle=orthogonalEdgeStyle;rounded=0;orthogonalLoop=1;jettySize=auto;html=1;endArrow=diamondThin;endFill=1;startSize=0;endSize=12;" parent="WIyWlLk6GJQsqaUBKTNV-1" source="QEdlRoliwSxRggkisAc3-32" target="QEdlRoliwSxRggkisAc3-0" edge="1">
          <mxGeometry relative="1" as="geometry">
            <mxPoint x="1402.5" y="1234" as="targetPoint" />
            <Array as="points">
              <mxPoint x="710" y="1332" />
              <mxPoint x="1353" y="1332" />
              <mxPoint x="1353" y="1222" />
            </Array>
          </mxGeometry>
        </mxCell>
        <mxCell id="QEdlRoliwSxRggkisAc3-32" value="Cadastros" style="swimlane;fontStyle=0;align=center;verticalAlign=top;childLayout=stackLayout;horizontal=1;startSize=26;horizontalStack=0;resizeParent=1;resizeLast=0;collapsible=1;marginBottom=0;rounded=0;shadow=0;strokeWidth=1;" parent="WIyWlLk6GJQsqaUBKTNV-1" vertex="1">
          <mxGeometry x="620" y="1102" width="210" height="90" as="geometry">
            <mxRectangle x="130" y="380" width="160" height="26" as="alternateBounds" />
          </mxGeometry>
        </mxCell>
        <mxCell id="QEdlRoliwSxRggkisAc3-39" value="- Grupos : list&lt;grupo de permissÃµes&gt;" style="text;align=left;verticalAlign=top;spacingLeft=4;spacingRight=4;overflow=hidden;rotatable=0;points=[[0,0.5],[1,0.5]];portConstraint=eastwest;" parent="QEdlRoliwSxRggkisAc3-32" vertex="1">
          <mxGeometry y="26" width="210" height="24" as="geometry" />
        </mxCell>
        <mxCell id="QEdlRoliwSxRggkisAc3-33" value="- InformaÃ§Ãµes de registro" style="text;align=left;verticalAlign=top;spacingLeft=4;spacingRight=4;overflow=hidden;rotatable=0;points=[[0,0.5],[1,0.5]];portConstraint=eastwest;" parent="QEdlRoliwSxRggkisAc3-32" vertex="1">
          <mxGeometry y="50" width="210" height="30" as="geometry" />
        </mxCell>
        <mxCell id="QEdlRoliwSxRggkisAc3-34" value="" style="line;html=1;strokeWidth=1;align=left;verticalAlign=middle;spacingTop=-1;spacingLeft=3;spacingRight=3;rotatable=0;labelPosition=right;points=[];portConstraint=eastwest;" parent="QEdlRoliwSxRggkisAc3-32" vertex="1">
          <mxGeometry y="80" width="210" height="10" as="geometry" />
        </mxCell>
        <mxCell id="QEdlRoliwSxRggkisAc3-57" value="1" style="edgeStyle=orthogonalEdgeStyle;rounded=0;orthogonalLoop=1;jettySize=auto;html=1;entryX=0.5;entryY=0;entryDx=0;entryDy=0;endArrow=none;endFill=0;startSize=0;endSize=12;" parent="WIyWlLk6GJQsqaUBKTNV-1" source="QEdlRoliwSxRggkisAc3-38" target="QEdlRoliwSxRggkisAc3-32" edge="1">
          <mxGeometry x="-0.8182" y="-5" relative="1" as="geometry">
            <mxPoint as="offset" />
          </mxGeometry>
        </mxCell>
        <mxCell id="QEdlRoliwSxRggkisAc3-38" value="UsuÃ¡rio" style="swimlane;fontStyle=0;align=center;verticalAlign=top;childLayout=stackLayout;horizontal=1;startSize=26;horizontalStack=0;resizeParent=1;resizeLast=0;collapsible=1;marginBottom=0;rounded=0;shadow=0;strokeWidth=1;" parent="WIyWlLk6GJQsqaUBKTNV-1" vertex="1">
          <mxGeometry x="615" y="892" width="220" height="166" as="geometry">
            <mxRectangle x="130" y="380" width="160" height="26" as="alternateBounds" />
          </mxGeometry>
        </mxCell>
        <mxCell id="SrNoQwheDIABxhmEImiM-3" value="- Instance : Usuario*" style="text;align=left;verticalAlign=top;spacingLeft=4;spacingRight=4;overflow=hidden;rotatable=0;points=[[0,0.5],[1,0.5]];portConstraint=eastwest;" parent="QEdlRoliwSxRggkisAc3-38" vertex="1">
          <mxGeometry y="26" width="220" height="24" as="geometry" />
        </mxCell>
        <mxCell id="QEdlRoliwSxRggkisAc3-40" value="" style="line;html=1;strokeWidth=1;align=left;verticalAlign=middle;spacingTop=-1;spacingLeft=3;spacingRight=3;rotatable=0;labelPosition=right;points=[];portConstraint=eastwest;" parent="QEdlRoliwSxRggkisAc3-38" vertex="1">
          <mxGeometry y="50" width="220" height="10" as="geometry" />
        </mxCell>
        <mxCell id="oLHwqm6MAmRIhUtxEYDU-1" value="+checkPermissÃ£o() : void" style="text;align=left;verticalAlign=top;spacingLeft=4;spacingRight=4;overflow=hidden;rotatable=0;points=[[0,0.5],[1,0.5]];portConstraint=eastwest;" parent="QEdlRoliwSxRggkisAc3-38" vertex="1">
          <mxGeometry y="60" width="220" height="26" as="geometry" />
        </mxCell>
        <mxCell id="zGkXYQqygLCUayVq4Tud-12" value="+ criarLog()" style="text;align=left;verticalAlign=top;spacingLeft=4;spacingRight=4;overflow=hidden;rotatable=0;points=[[0,0.5],[1,0.5]];portConstraint=eastwest;" parent="QEdlRoliwSxRggkisAc3-38" vertex="1">
          <mxGeometry y="86" width="220" height="28" as="geometry" />
        </mxCell>
        <mxCell id="SrNoQwheDIABxhmEImiM-4" value="- Usuario()" style="text;align=left;verticalAlign=top;spacingLeft=4;spacingRight=4;overflow=hidden;rotatable=0;points=[[0,0.5],[1,0.5]];portConstraint=eastwest;rounded=0;shadow=0;html=0;" parent="QEdlRoliwSxRggkisAc3-38" vertex="1">
          <mxGeometry y="114" width="220" height="26" as="geometry" />
        </mxCell>
        <mxCell id="SrNoQwheDIABxhmEImiM-5" value="+ getInstance() : Usuario*" style="text;align=left;verticalAlign=top;spacingLeft=4;spacingRight=4;overflow=hidden;rotatable=0;points=[[0,0.5],[1,0.5]];portConstraint=eastwest;rounded=0;shadow=0;html=0;" parent="QEdlRoliwSxRggkisAc3-38" vertex="1">
          <mxGeometry y="140" width="220" height="26" as="geometry" />
        </mxCell>
        <mxCell id="zGkXYQqygLCUayVq4Tud-5" value="1" style="edgeStyle=orthogonalEdgeStyle;rounded=0;orthogonalLoop=1;jettySize=auto;html=1;endArrow=diamondThin;endFill=1;entryX=0.5;entryY=1;entryDx=0;entryDy=0;endSize=12;" parent="WIyWlLk6GJQsqaUBKTNV-1" source="uIYZ0VYp6j5XHHKCWPDb-7" target="zGkXYQqygLCUayVq4Tud-0" edge="1">
          <mxGeometry x="0.8765" y="-10" relative="1" as="geometry">
            <mxPoint x="410" y="944" as="targetPoint" />
            <mxPoint as="offset" />
          </mxGeometry>
        </mxCell>
        <mxCell id="uIYZ0VYp6j5XHHKCWPDb-7" value="Log" style="swimlane;fontStyle=0;align=center;verticalAlign=top;childLayout=stackLayout;horizontal=1;startSize=26;horizontalStack=0;resizeParent=1;resizeLast=0;collapsible=1;marginBottom=0;rounded=0;shadow=0;strokeWidth=1;" parent="WIyWlLk6GJQsqaUBKTNV-1" vertex="1">
          <mxGeometry x="350" y="1076" width="180" height="108" as="geometry">
            <mxRectangle x="130" y="380" width="160" height="26" as="alternateBounds" />
          </mxGeometry>
        </mxCell>
        <mxCell id="uIYZ0VYp6j5XHHKCWPDb-8" value="- Data : Data" style="text;align=left;verticalAlign=top;spacingLeft=4;spacingRight=4;overflow=hidden;rotatable=0;points=[[0,0.5],[1,0.5]];portConstraint=eastwest;" parent="uIYZ0VYp6j5XHHKCWPDb-7" vertex="1">
          <mxGeometry y="26" width="180" height="24" as="geometry" />
        </mxCell>
        <mxCell id="uIYZ0VYp6j5XHHKCWPDb-10" value="- Entidade : string" style="text;align=left;verticalAlign=top;spacingLeft=4;spacingRight=4;overflow=hidden;rotatable=0;points=[[0,0.5],[1,0.5]];portConstraint=eastwest;" parent="uIYZ0VYp6j5XHHKCWPDb-7" vertex="1">
          <mxGeometry y="50" width="180" height="24" as="geometry" />
        </mxCell>
        <mxCell id="uIYZ0VYp6j5XHHKCWPDb-9" value="" style="line;html=1;strokeWidth=1;align=left;verticalAlign=middle;spacingTop=-1;spacingLeft=3;spacingRight=3;rotatable=0;labelPosition=right;points=[];portConstraint=eastwest;" parent="uIYZ0VYp6j5XHHKCWPDb-7" vertex="1">
          <mxGeometry y="74" width="180" height="10" as="geometry" />
        </mxCell>
        <mxCell id="uIYZ0VYp6j5XHHKCWPDb-11" value="+ virtual printLog()" style="text;align=left;verticalAlign=top;spacingLeft=4;spacingRight=4;overflow=hidden;rotatable=0;points=[[0,0.5],[1,0.5]];portConstraint=eastwest;" parent="uIYZ0VYp6j5XHHKCWPDb-7" vertex="1">
          <mxGeometry y="84" width="180" height="16" as="geometry" />
        </mxCell>
        <mxCell id="zGkXYQqygLCUayVq4Tud-16" value="1" style="edgeStyle=orthogonalEdgeStyle;rounded=0;orthogonalLoop=1;jettySize=auto;html=1;entryX=0.75;entryY=0;entryDx=0;entryDy=0;fontSize=11;endArrow=none;endFill=0;endSize=11;" parent="WIyWlLk6GJQsqaUBKTNV-1" source="uIYZ0VYp6j5XHHKCWPDb-14" target="uIYZ0VYp6j5XHHKCWPDb-30" edge="1">
          <mxGeometry x="-0.9444" y="-15" relative="1" as="geometry">
            <Array as="points">
              <mxPoint x="595" y="1002" />
              <mxPoint x="595" y="1002" />
            </Array>
            <mxPoint y="-1" as="offset" />
          </mxGeometry>
        </mxCell>
        <mxCell id="uIYZ0VYp6j5XHHKCWPDb-14" value="ExceÃ§Ã£o" style="swimlane;fontStyle=0;align=center;verticalAlign=top;childLayout=stackLayout;horizontal=1;startSize=26;horizontalStack=0;resizeParent=1;resizeLast=0;collapsible=1;marginBottom=0;rounded=0;shadow=0;strokeWidth=1;" parent="WIyWlLk6GJQsqaUBKTNV-1" vertex="1">
          <mxGeometry x="510" y="800" width="160" height="82" as="geometry">
            <mxRectangle x="550" y="140" width="160" height="26" as="alternateBounds" />
          </mxGeometry>
        </mxCell>
        <mxCell id="uIYZ0VYp6j5XHHKCWPDb-15" value="- Mensagem : string" style="text;align=left;verticalAlign=top;spacingLeft=4;spacingRight=4;overflow=hidden;rotatable=0;points=[[0,0.5],[1,0.5]];portConstraint=eastwest;" parent="uIYZ0VYp6j5XHHKCWPDb-14" vertex="1">
          <mxGeometry y="26" width="160" height="24" as="geometry" />
        </mxCell>
        <mxCell id="uIYZ0VYp6j5XHHKCWPDb-16" value="" style="line;html=1;strokeWidth=1;align=left;verticalAlign=middle;spacingTop=-1;spacingLeft=3;spacingRight=3;rotatable=0;labelPosition=right;points=[];portConstraint=eastwest;" parent="uIYZ0VYp6j5XHHKCWPDb-14" vertex="1">
          <mxGeometry y="50" width="160" height="10" as="geometry" />
        </mxCell>
        <mxCell id="uIYZ0VYp6j5XHHKCWPDb-22" value="+ criarLog()" style="text;align=left;verticalAlign=top;spacingLeft=4;spacingRight=4;overflow=hidden;rotatable=0;points=[[0,0.5],[1,0.5]];portConstraint=eastwest;" parent="uIYZ0VYp6j5XHHKCWPDb-14" vertex="1">
          <mxGeometry y="60" width="160" height="16" as="geometry" />
        </mxCell>
        <mxCell id="uIYZ0VYp6j5XHHKCWPDb-36" style="edgeStyle=orthogonalEdgeStyle;rounded=0;orthogonalLoop=1;jettySize=auto;html=1;endArrow=block;endFill=0;" parent="WIyWlLk6GJQsqaUBKTNV-1" source="uIYZ0VYp6j5XHHKCWPDb-23" edge="1">
          <mxGeometry relative="1" as="geometry">
            <mxPoint x="440" y="1184" as="targetPoint" />
            <Array as="points">
              <mxPoint x="285" y="1214" />
              <mxPoint x="440" y="1214" />
            </Array>
          </mxGeometry>
        </mxCell>
        <mxCell id="uIYZ0VYp6j5XHHKCWPDb-23" value="Leitura" style="swimlane;fontStyle=0;align=center;verticalAlign=top;childLayout=stackLayout;horizontal=1;startSize=26;horizontalStack=0;resizeParent=1;resizeLast=0;collapsible=1;marginBottom=0;rounded=0;shadow=0;strokeWidth=1;" parent="WIyWlLk6GJQsqaUBKTNV-1" vertex="1">
          <mxGeometry x="230" y="1238" width="110" height="60" as="geometry">
            <mxRectangle x="550" y="140" width="160" height="26" as="alternateBounds" />
          </mxGeometry>
        </mxCell>
        <mxCell id="uIYZ0VYp6j5XHHKCWPDb-24" value="- Atributo : string" style="text;align=left;verticalAlign=top;spacingLeft=4;spacingRight=4;overflow=hidden;rotatable=0;points=[[0,0.5],[1,0.5]];portConstraint=eastwest;" parent="uIYZ0VYp6j5XHHKCWPDb-23" vertex="1">
          <mxGeometry y="26" width="110" height="24" as="geometry" />
        </mxCell>
        <mxCell id="uIYZ0VYp6j5XHHKCWPDb-26" value="" style="line;html=1;strokeWidth=1;align=left;verticalAlign=middle;spacingTop=-1;spacingLeft=3;spacingRight=3;rotatable=0;labelPosition=right;points=[];portConstraint=eastwest;" parent="uIYZ0VYp6j5XHHKCWPDb-23" vertex="1">
          <mxGeometry y="50" width="110" height="10" as="geometry" />
        </mxCell>
        <mxCell id="uIYZ0VYp6j5XHHKCWPDb-35" style="edgeStyle=orthogonalEdgeStyle;rounded=0;orthogonalLoop=1;jettySize=auto;html=1;endArrow=block;endFill=0;" parent="WIyWlLk6GJQsqaUBKTNV-1" source="uIYZ0VYp6j5XHHKCWPDb-27" edge="1">
          <mxGeometry relative="1" as="geometry">
            <mxPoint x="440" y="1184" as="targetPoint" />
            <Array as="points">
              <mxPoint x="415" y="1214" />
              <mxPoint x="440" y="1214" />
            </Array>
          </mxGeometry>
        </mxCell>
        <mxCell id="uIYZ0VYp6j5XHHKCWPDb-27" value="Escrita" style="swimlane;fontStyle=0;align=center;verticalAlign=top;childLayout=stackLayout;horizontal=1;startSize=26;horizontalStack=0;resizeParent=1;resizeLast=0;collapsible=1;marginBottom=0;rounded=0;shadow=0;strokeWidth=1;" parent="WIyWlLk6GJQsqaUBKTNV-1" vertex="1">
          <mxGeometry x="360" y="1238" width="110" height="84" as="geometry">
            <mxRectangle x="550" y="140" width="160" height="26" as="alternateBounds" />
          </mxGeometry>
        </mxCell>
        <mxCell id="uIYZ0VYp6j5XHHKCWPDb-28" value="- Antes : string" style="text;align=left;verticalAlign=top;spacingLeft=4;spacingRight=4;overflow=hidden;rotatable=0;points=[[0,0.5],[1,0.5]];portConstraint=eastwest;" parent="uIYZ0VYp6j5XHHKCWPDb-27" vertex="1">
          <mxGeometry y="26" width="110" height="24" as="geometry" />
        </mxCell>
        <mxCell id="uIYZ0VYp6j5XHHKCWPDb-33" value="- Depois : string" style="text;align=left;verticalAlign=top;spacingLeft=4;spacingRight=4;overflow=hidden;rotatable=0;points=[[0,0.5],[1,0.5]];portConstraint=eastwest;" parent="uIYZ0VYp6j5XHHKCWPDb-27" vertex="1">
          <mxGeometry y="50" width="110" height="24" as="geometry" />
        </mxCell>
        <mxCell id="uIYZ0VYp6j5XHHKCWPDb-29" value="" style="line;html=1;strokeWidth=1;align=left;verticalAlign=middle;spacingTop=-1;spacingLeft=3;spacingRight=3;rotatable=0;labelPosition=right;points=[];portConstraint=eastwest;" parent="uIYZ0VYp6j5XHHKCWPDb-27" vertex="1">
          <mxGeometry y="74" width="110" height="10" as="geometry" />
        </mxCell>
        <mxCell id="uIYZ0VYp6j5XHHKCWPDb-34" style="edgeStyle=orthogonalEdgeStyle;rounded=0;orthogonalLoop=1;jettySize=auto;html=1;entryX=0.5;entryY=1;entryDx=0;entryDy=0;endArrow=block;endFill=0;exitX=0.5;exitY=0;exitDx=0;exitDy=0;" parent="WIyWlLk6GJQsqaUBKTNV-1" source="uIYZ0VYp6j5XHHKCWPDb-30" target="uIYZ0VYp6j5XHHKCWPDb-7" edge="1">
          <mxGeometry relative="1" as="geometry">
            <Array as="points">
              <mxPoint x="560" y="1214" />
              <mxPoint x="440" y="1214" />
            </Array>
            <mxPoint x="550" y="1238" as="sourcePoint" />
          </mxGeometry>
        </mxCell>
        <mxCell id="uIYZ0VYp6j5XHHKCWPDb-30" value="Acesso Negado" style="swimlane;fontStyle=0;align=center;verticalAlign=top;childLayout=stackLayout;horizontal=1;startSize=26;horizontalStack=0;resizeParent=1;resizeLast=0;collapsible=1;marginBottom=0;rounded=0;shadow=0;strokeWidth=1;" parent="WIyWlLk6GJQsqaUBKTNV-1" vertex="1">
          <mxGeometry x="490" y="1242" width="140" height="60" as="geometry">
            <mxRectangle x="550" y="140" width="160" height="26" as="alternateBounds" />
          </mxGeometry>
        </mxCell>
        <mxCell id="uIYZ0VYp6j5XHHKCWPDb-31" value="- Funcionalidade : string" style="text;align=left;verticalAlign=top;spacingLeft=4;spacingRight=4;overflow=hidden;rotatable=0;points=[[0,0.5],[1,0.5]];portConstraint=eastwest;" parent="uIYZ0VYp6j5XHHKCWPDb-30" vertex="1">
          <mxGeometry y="26" width="140" height="24" as="geometry" />
        </mxCell>
        <mxCell id="uIYZ0VYp6j5XHHKCWPDb-32" value="" style="line;html=1;strokeWidth=1;align=left;verticalAlign=middle;spacingTop=-1;spacingLeft=3;spacingRight=3;rotatable=0;labelPosition=right;points=[];portConstraint=eastwest;" parent="uIYZ0VYp6j5XHHKCWPDb-30" vertex="1">
          <mxGeometry y="50" width="140" height="10" as="geometry" />
        </mxCell>
        <mxCell id="zGkXYQqygLCUayVq4Tud-0" value="Log_List" style="swimlane;fontStyle=0;align=center;verticalAlign=top;childLayout=stackLayout;horizontal=1;startSize=26;horizontalStack=0;resizeParent=1;resizeLast=0;collapsible=1;marginBottom=0;rounded=0;shadow=0;strokeWidth=1;" parent="WIyWlLk6GJQsqaUBKTNV-1" vertex="1">
          <mxGeometry x="350" y="892" width="180" height="138" as="geometry">
            <mxRectangle x="130" y="380" width="160" height="26" as="alternateBounds" />
          </mxGeometry>
        </mxCell>
        <mxCell id="SrNoQwheDIABxhmEImiM-7" value="- Instance : Log_List*" style="text;align=left;verticalAlign=top;spacingLeft=4;spacingRight=4;overflow=hidden;rotatable=0;points=[[0,0.5],[1,0.5]];portConstraint=eastwest;" parent="zGkXYQqygLCUayVq4Tud-0" vertex="1">
          <mxGeometry y="26" width="180" height="24" as="geometry" />
        </mxCell>
        <mxCell id="zGkXYQqygLCUayVq4Tud-3" value="" style="line;html=1;strokeWidth=1;align=left;verticalAlign=middle;spacingTop=-1;spacingLeft=3;spacingRight=3;rotatable=0;labelPosition=right;points=[];portConstraint=eastwest;" parent="zGkXYQqygLCUayVq4Tud-0" vertex="1">
          <mxGeometry y="50" width="180" height="10" as="geometry" />
        </mxCell>
        <mxCell id="SrNoQwheDIABxhmEImiM-8" value="- Log_List()" style="text;align=left;verticalAlign=top;spacingLeft=4;spacingRight=4;overflow=hidden;rotatable=0;points=[[0,0.5],[1,0.5]];portConstraint=eastwest;rounded=0;shadow=0;html=0;" parent="zGkXYQqygLCUayVq4Tud-0" vertex="1">
          <mxGeometry y="60" width="180" height="26" as="geometry" />
        </mxCell>
        <mxCell id="SrNoQwheDIABxhmEImiM-9" value="+ getInstance() : Log_List*" style="text;align=left;verticalAlign=top;spacingLeft=4;spacingRight=4;overflow=hidden;rotatable=0;points=[[0,0.5],[1,0.5]];portConstraint=eastwest;rounded=0;shadow=0;html=0;" parent="zGkXYQqygLCUayVq4Tud-0" vertex="1">
          <mxGeometry y="86" width="180" height="26" as="geometry" />
        </mxCell>
        <mxCell id="SrNoQwheDIABxhmEImiM-10" value="+ addLog() : void" style="text;align=left;verticalAlign=top;spacingLeft=4;spacingRight=4;overflow=hidden;rotatable=0;points=[[0,0.5],[1,0.5]];portConstraint=eastwest;rounded=0;shadow=0;html=0;" parent="zGkXYQqygLCUayVq4Tud-0" vertex="1">
          <mxGeometry y="112" width="180" height="26" as="geometry" />
        </mxCell>
        <mxCell id="zGkXYQqygLCUayVq4Tud-17" value="1" style="text;html=1;align=center;verticalAlign=middle;resizable=0;points=[];autosize=1;strokeColor=none;fillColor=none;fontSize=11;" parent="WIyWlLk6GJQsqaUBKTNV-1" vertex="1">
          <mxGeometry x="570" y="1212" width="30" height="30" as="geometry" />
        </mxCell>
        <mxCell id="zGkXYQqygLCUayVq4Tud-8" value="&lt;font style=&quot;font-size: 11px;&quot;&gt;1&lt;/font&gt;" style="text;html=1;align=center;verticalAlign=middle;resizable=0;points=[];autosize=1;strokeColor=none;fillColor=none;" parent="WIyWlLk6GJQsqaUBKTNV-1" vertex="1">
          <mxGeometry x="625" y="1082" width="210" height="30" as="geometry" />
        </mxCell>
        <mxCell id="2bF-VOdr1F6drvu_YguW-59" style="edgeStyle=orthogonalEdgeStyle;rounded=0;orthogonalLoop=1;jettySize=auto;html=1;endArrow=none;endFill=0;startSize=12;endSize=12;startArrow=diamondThin;startFill=0;" parent="WIyWlLk6GJQsqaUBKTNV-1" source="2bF-VOdr1F6drvu_YguW-36" target="2bF-VOdr1F6drvu_YguW-41" edge="1">
          <mxGeometry relative="1" as="geometry">
            <Array as="points">
              <mxPoint x="2660" y="350" />
              <mxPoint x="2660" y="1082" />
              <mxPoint x="2233" y="1082" />
            </Array>
          </mxGeometry>
        </mxCell>
        <mxCell id="2bF-VOdr1F6drvu_YguW-62" value="1" style="edgeLabel;html=1;align=center;verticalAlign=middle;resizable=0;points=[];" parent="2bF-VOdr1F6drvu_YguW-59" vertex="1" connectable="0">
          <mxGeometry x="-0.3662" y="1" relative="1" as="geometry">
            <mxPoint x="71" y="11" as="offset" />
          </mxGeometry>
        </mxCell>
        <mxCell id="sIXqrEJmwhZND9avBSch-11" style="edgeStyle=orthogonalEdgeStyle;rounded=0;orthogonalLoop=1;jettySize=auto;html=1;endArrow=diamondThin;endFill=1;endSize=12;" parent="WIyWlLk6GJQsqaUBKTNV-1" source="2bF-VOdr1F6drvu_YguW-36" target="sIXqrEJmwhZND9avBSch-0" edge="1">
          <mxGeometry relative="1" as="geometry">
            <Array as="points">
              <mxPoint x="2920" y="270" />
              <mxPoint x="2920" y="1362" />
            </Array>
          </mxGeometry>
        </mxCell>
        <mxCell id="D_1TLd0i7CIZFXxmKJXh-9" style="edgeStyle=orthogonalEdgeStyle;rounded=0;orthogonalLoop=1;jettySize=auto;html=1;endArrow=block;endFill=0;strokeWidth=1;endSize=12;" parent="WIyWlLk6GJQsqaUBKTNV-1" source="2bF-VOdr1F6drvu_YguW-36" target="D_1TLd0i7CIZFXxmKJXh-3" edge="1">
          <mxGeometry relative="1" as="geometry">
            <Array as="points">
              <mxPoint x="2340" y="214" />
              <mxPoint x="2200" y="214" />
            </Array>
          </mxGeometry>
        </mxCell>
        <mxCell id="2bF-VOdr1F6drvu_YguW-36" value="OrÃ§amento de Venda" style="swimlane;fontStyle=0;align=center;verticalAlign=top;childLayout=stackLayout;horizontal=1;startSize=26;horizontalStack=0;resizeParent=1;resizeLast=0;collapsible=1;marginBottom=0;rounded=0;shadow=0;strokeWidth=1;" parent="WIyWlLk6GJQsqaUBKTNV-1" vertex="1">
          <mxGeometry x="2250" y="234" width="180" height="126" as="geometry">
            <mxRectangle x="550" y="140" width="160" height="26" as="alternateBounds" />
          </mxGeometry>
        </mxCell>
        <mxCell id="2bF-VOdr1F6drvu_YguW-37" value="- valorTotal : double" style="text;align=left;verticalAlign=top;spacingLeft=4;spacingRight=4;overflow=hidden;rotatable=0;points=[[0,0.5],[1,0.5]];portConstraint=eastwest;" parent="2bF-VOdr1F6drvu_YguW-36" vertex="1">
          <mxGeometry y="26" width="180" height="24" as="geometry" />
        </mxCell>
        <mxCell id="sIXqrEJmwhZND9avBSch-14" value="- Carrinho : map&lt;Produto, qtd&gt;" style="text;align=left;verticalAlign=top;spacingLeft=4;spacingRight=4;overflow=hidden;rotatable=0;points=[[0,0.5],[1,0.5]];portConstraint=eastwest;" parent="2bF-VOdr1F6drvu_YguW-36" vertex="1">
          <mxGeometry y="50" width="180" height="20" as="geometry" />
        </mxCell>
        <mxCell id="2bF-VOdr1F6drvu_YguW-39" value="" style="line;html=1;strokeWidth=1;align=left;verticalAlign=middle;spacingTop=-1;spacingLeft=3;spacingRight=3;rotatable=0;labelPosition=right;points=[];portConstraint=eastwest;" parent="2bF-VOdr1F6drvu_YguW-36" vertex="1">
          <mxGeometry y="70" width="180" height="10" as="geometry" />
        </mxCell>
        <mxCell id="2bF-VOdr1F6drvu_YguW-63" style="edgeStyle=orthogonalEdgeStyle;rounded=0;orthogonalLoop=1;jettySize=auto;html=1;endArrow=none;endFill=0;startSize=12;endSize=12;startArrow=diamondThin;startFill=0;" parent="WIyWlLk6GJQsqaUBKTNV-1" source="2bF-VOdr1F6drvu_YguW-41" target="2bF-VOdr1F6drvu_YguW-47" edge="1">
          <mxGeometry relative="1" as="geometry">
            <Array as="points">
              <mxPoint x="2330" y="1192" />
              <mxPoint x="2330" y="1192" />
            </Array>
          </mxGeometry>
        </mxCell>
        <mxCell id="2bF-VOdr1F6drvu_YguW-41" value="Pedido de Venda" style="swimlane;fontStyle=0;align=center;verticalAlign=top;childLayout=stackLayout;horizontal=1;startSize=26;horizontalStack=0;resizeParent=1;resizeLast=0;collapsible=1;marginBottom=0;rounded=0;shadow=0;strokeWidth=1;" parent="WIyWlLk6GJQsqaUBKTNV-1" vertex="1">
          <mxGeometry x="2152.75" y="1118" width="160" height="114" as="geometry">
            <mxRectangle x="550" y="140" width="160" height="26" as="alternateBounds" />
          </mxGeometry>
        </mxCell>
        <mxCell id="2bF-VOdr1F6drvu_YguW-42" value="- Data : Data" style="text;align=left;verticalAlign=top;spacingLeft=4;spacingRight=4;overflow=hidden;rotatable=0;points=[[0,0.5],[1,0.5]];portConstraint=eastwest;" parent="2bF-VOdr1F6drvu_YguW-41" vertex="1">
          <mxGeometry y="26" width="160" height="24" as="geometry" />
        </mxCell>
        <mxCell id="2bF-VOdr1F6drvu_YguW-43" value="" style="line;html=1;strokeWidth=1;align=left;verticalAlign=middle;spacingTop=-1;spacingLeft=3;spacingRight=3;rotatable=0;labelPosition=right;points=[];portConstraint=eastwest;" parent="2bF-VOdr1F6drvu_YguW-41" vertex="1">
          <mxGeometry y="50" width="160" height="10" as="geometry" />
        </mxCell>
        <mxCell id="2bF-VOdr1F6drvu_YguW-44" value="+ validaEstoque() : bool" style="text;align=left;verticalAlign=top;spacingLeft=4;spacingRight=4;overflow=hidden;rotatable=0;points=[[0,0.5],[1,0.5]];portConstraint=eastwest;rounded=0;shadow=0;html=0;" parent="2bF-VOdr1F6drvu_YguW-41" vertex="1">
          <mxGeometry y="60" width="160" height="26" as="geometry" />
        </mxCell>
        <mxCell id="2bF-VOdr1F6drvu_YguW-45" value="+ validaValor() : bool" style="text;align=left;verticalAlign=top;spacingLeft=4;spacingRight=4;overflow=hidden;rotatable=0;points=[[0,0.5],[1,0.5]];portConstraint=eastwest;rounded=0;shadow=0;html=0;" parent="2bF-VOdr1F6drvu_YguW-41" vertex="1">
          <mxGeometry y="86" width="160" height="26" as="geometry" />
        </mxCell>
        <mxCell id="2bF-VOdr1F6drvu_YguW-47" value="Pagamento" style="swimlane;fontStyle=0;align=center;verticalAlign=top;childLayout=stackLayout;horizontal=1;startSize=26;horizontalStack=0;resizeParent=1;resizeLast=0;collapsible=1;marginBottom=0;rounded=0;shadow=0;strokeWidth=1;" parent="WIyWlLk6GJQsqaUBKTNV-1" vertex="1">
          <mxGeometry x="2390.25" y="1132" width="160" height="120" as="geometry">
            <mxRectangle x="550" y="140" width="160" height="26" as="alternateBounds" />
          </mxGeometry>
        </mxCell>
        <mxCell id="2bF-VOdr1F6drvu_YguW-48" value="- tipo: FormaDePagamento" style="text;align=left;verticalAlign=top;spacingLeft=4;spacingRight=4;overflow=hidden;rotatable=0;points=[[0,0.5],[1,0.5]];portConstraint=eastwest;" parent="2bF-VOdr1F6drvu_YguW-47" vertex="1">
          <mxGeometry y="26" width="160" height="24" as="geometry" />
        </mxCell>
        <mxCell id="2bF-VOdr1F6drvu_YguW-49" value="- Parcelamento : int" style="text;align=left;verticalAlign=top;spacingLeft=4;spacingRight=4;overflow=hidden;rotatable=0;points=[[0,0.5],[1,0.5]];portConstraint=eastwest;" parent="2bF-VOdr1F6drvu_YguW-47" vertex="1">
          <mxGeometry y="50" width="160" height="20" as="geometry" />
        </mxCell>
        <mxCell id="2bF-VOdr1F6drvu_YguW-50" value="- Prazo : Data" style="text;align=left;verticalAlign=top;spacingLeft=4;spacingRight=4;overflow=hidden;rotatable=0;points=[[0,0.5],[1,0.5]];portConstraint=eastwest;" parent="2bF-VOdr1F6drvu_YguW-47" vertex="1">
          <mxGeometry y="70" width="160" height="20" as="geometry" />
        </mxCell>
        <mxCell id="2bF-VOdr1F6drvu_YguW-51" value="- Valor : double" style="text;align=left;verticalAlign=top;spacingLeft=4;spacingRight=4;overflow=hidden;rotatable=0;points=[[0,0.5],[1,0.5]];portConstraint=eastwest;" parent="2bF-VOdr1F6drvu_YguW-47" vertex="1">
          <mxGeometry y="90" width="160" height="20" as="geometry" />
        </mxCell>
        <mxCell id="2bF-VOdr1F6drvu_YguW-52" value="" style="line;html=1;strokeWidth=1;align=left;verticalAlign=middle;spacingTop=-1;spacingLeft=3;spacingRight=3;rotatable=0;labelPosition=right;points=[];portConstraint=eastwest;" parent="2bF-VOdr1F6drvu_YguW-47" vertex="1">
          <mxGeometry y="110" width="160" height="10" as="geometry" />
        </mxCell>
        <mxCell id="2bF-VOdr1F6drvu_YguW-55" value="0..*" style="edgeStyle=orthogonalEdgeStyle;orthogonalLoop=1;jettySize=auto;html=1;endArrow=none;endFill=0;sourcePerimeterSpacing=0;strokeColor=default;rounded=0;shadow=0;sketch=0;" parent="WIyWlLk6GJQsqaUBKTNV-1" source="oOCzSW_UTQTpbfUNsKzi-37" target="2bF-VOdr1F6drvu_YguW-41" edge="1">
          <mxGeometry x="0.9612" y="-14" relative="1" as="geometry">
            <mxPoint as="offset" />
            <mxPoint x="1642.5" y="671" as="sourcePoint" />
            <mxPoint x="1862.4999999999995" y="877" as="targetPoint" />
            <Array as="points">
              <mxPoint x="1410" y="880" />
              <mxPoint x="1980" y="880" />
              <mxPoint x="1980" y="1132" />
            </Array>
          </mxGeometry>
        </mxCell>
        <mxCell id="2bF-VOdr1F6drvu_YguW-58" value="0..*" style="edgeStyle=orthogonalEdgeStyle;orthogonalLoop=1;jettySize=auto;html=1;endArrow=none;endFill=0;strokeColor=default;rounded=0;shadow=0;sketch=0;startArrow=none;" parent="WIyWlLk6GJQsqaUBKTNV-1" source="kUKSnN2JtTNtcE-FzDpD-6" target="2bF-VOdr1F6drvu_YguW-36" edge="1">
          <mxGeometry x="0.9918" y="10" relative="1" as="geometry">
            <mxPoint x="1" as="offset" />
            <mxPoint x="1642.5" y="670.9999999999999" as="sourcePoint" />
            <mxPoint x="1892.75" y="1118" as="targetPoint" />
            <Array as="points">
              <mxPoint x="1410" y="811" />
              <mxPoint x="1410" y="880" />
              <mxPoint x="1980" y="880" />
              <mxPoint x="1980" y="1070" />
              <mxPoint x="2760" y="1070" />
              <mxPoint x="2760" y="320" />
            </Array>
          </mxGeometry>
        </mxCell>
        <mxCell id="2bF-VOdr1F6drvu_YguW-61" value="0..*" style="edgeLabel;resizable=0;html=1;align=left;verticalAlign=top;" parent="WIyWlLk6GJQsqaUBKTNV-1" connectable="0" vertex="1">
          <mxGeometry x="2210" y="1092" as="geometry" />
        </mxCell>
        <mxCell id="2bF-VOdr1F6drvu_YguW-64" value="0..*" style="edgeLabel;resizable=0;html=1;align=left;verticalAlign=top;" parent="WIyWlLk6GJQsqaUBKTNV-1" connectable="0" vertex="1">
          <mxGeometry x="2312.75" y="1190" as="geometry" />
        </mxCell>
        <mxCell id="2bF-VOdr1F6drvu_YguW-65" value="1..*" style="edgeLabel;resizable=0;html=1;align=left;verticalAlign=top;" parent="WIyWlLk6GJQsqaUBKTNV-1" connectable="0" vertex="1">
          <mxGeometry x="2370" y="1162" as="geometry" />
        </mxCell>
        <mxCell id="Y2uixVk514McfuugYgpd-2" value="1..*" style="edgeLabel;resizable=0;html=1;align=left;verticalAlign=top;" parent="WIyWlLk6GJQsqaUBKTNV-1" connectable="0" vertex="1">
          <mxGeometry x="2362.5" y="746" as="geometry" />
        </mxCell>
        <mxCell id="Y2uixVk514McfuugYgpd-3" value="1..*" style="edgeLabel;resizable=0;html=1;align=left;verticalAlign=top;" parent="WIyWlLk6GJQsqaUBKTNV-1" connectable="0" vertex="1">
          <mxGeometry x="2330" y="746" as="geometry" />
        </mxCell>
        <mxCell id="Y2uixVk514McfuugYgpd-4" value="0..*" style="edgeLabel;resizable=0;html=1;align=left;verticalAlign=top;" parent="WIyWlLk6GJQsqaUBKTNV-1" connectable="0" vertex="1">
          <mxGeometry x="2270" y="1092" as="geometry" />
        </mxCell>
        <mxCell id="sIXqrEJmwhZND9avBSch-0" value="VendaOnline" style="swimlane;fontStyle=0;align=center;verticalAlign=top;childLayout=stackLayout;horizontal=1;startSize=26;horizontalStack=0;resizeParent=1;resizeLast=0;collapsible=1;marginBottom=0;rounded=0;shadow=0;strokeWidth=1;" parent="WIyWlLk6GJQsqaUBKTNV-1" vertex="1">
          <mxGeometry x="2600" y="1242" width="190" height="240" as="geometry">
            <mxRectangle x="130" y="380" width="160" height="26" as="alternateBounds" />
          </mxGeometry>
        </mxCell>
        <mxCell id="sIXqrEJmwhZND9avBSch-2" value="- Instance : VendaOnline*" style="text;align=left;verticalAlign=top;spacingLeft=4;spacingRight=4;overflow=hidden;rotatable=0;points=[[0,0.5],[1,0.5]];portConstraint=eastwest;" parent="sIXqrEJmwhZND9avBSch-0" vertex="1">
          <mxGeometry y="26" width="190" height="24" as="geometry" />
        </mxCell>
        <mxCell id="sIXqrEJmwhZND9avBSch-3" value="" style="line;html=1;strokeWidth=1;align=left;verticalAlign=middle;spacingTop=-1;spacingLeft=3;spacingRight=3;rotatable=0;labelPosition=right;points=[];portConstraint=eastwest;" parent="sIXqrEJmwhZND9avBSch-0" vertex="1">
          <mxGeometry y="50" width="190" height="10" as="geometry" />
        </mxCell>
        <mxCell id="sIXqrEJmwhZND9avBSch-5" value="+ addPedido() : void" style="text;align=left;verticalAlign=top;spacingLeft=4;spacingRight=4;overflow=hidden;rotatable=0;points=[[0,0.5],[1,0.5]];portConstraint=eastwest;" parent="sIXqrEJmwhZND9avBSch-0" vertex="1">
          <mxGeometry y="60" width="190" height="26" as="geometry" />
        </mxCell>
        <mxCell id="sIXqrEJmwhZND9avBSch-6" value="+ addOrcamento : void" style="text;align=left;verticalAlign=top;spacingLeft=4;spacingRight=4;overflow=hidden;rotatable=0;points=[[0,0.5],[1,0.5]];portConstraint=eastwest;rounded=0;shadow=0;html=0;" parent="sIXqrEJmwhZND9avBSch-0" vertex="1">
          <mxGeometry y="86" width="190" height="26" as="geometry" />
        </mxCell>
        <mxCell id="sIXqrEJmwhZND9avBSch-8" value="- VendaOnline()" style="text;align=left;verticalAlign=top;spacingLeft=4;spacingRight=4;overflow=hidden;rotatable=0;points=[[0,0.5],[1,0.5]];portConstraint=eastwest;rounded=0;shadow=0;html=0;" parent="sIXqrEJmwhZND9avBSch-0" vertex="1">
          <mxGeometry y="112" width="190" height="26" as="geometry" />
        </mxCell>
        <mxCell id="sIXqrEJmwhZND9avBSch-9" value="+ getInstance() : VendaOnline*" style="text;align=left;verticalAlign=top;spacingLeft=4;spacingRight=4;overflow=hidden;rotatable=0;points=[[0,0.5],[1,0.5]];portConstraint=eastwest;rounded=0;shadow=0;html=0;" parent="sIXqrEJmwhZND9avBSch-0" vertex="1">
          <mxGeometry y="138" width="190" height="26" as="geometry" />
        </mxCell>
        <mxCell id="3y_pmbWVYnA6BIt8cu6T-3" value="1" style="rounded=0;orthogonalLoop=1;jettySize=auto;html=1;endArrow=none;endFill=0;" parent="WIyWlLk6GJQsqaUBKTNV-1" source="sIXqrEJmwhZND9avBSch-16" edge="1">
          <mxGeometry x="0.5556" y="-7" relative="1" as="geometry">
            <mxPoint x="2472.5" y="1252" as="targetPoint" />
            <mxPoint x="1" as="offset" />
          </mxGeometry>
        </mxCell>
        <mxCell id="sIXqrEJmwhZND9avBSch-16" value="Forma de Pagamento" style="swimlane;fontStyle=0;align=center;verticalAlign=top;childLayout=stackLayout;horizontal=1;startSize=26;horizontalStack=0;resizeParent=1;resizeLast=0;collapsible=1;marginBottom=0;rounded=0;shadow=0;strokeWidth=1;" parent="WIyWlLk6GJQsqaUBKTNV-1" vertex="1">
          <mxGeometry x="2372.5" y="1288" width="200" height="84" as="geometry">
            <mxRectangle x="550" y="140" width="160" height="26" as="alternateBounds" />
          </mxGeometry>
        </mxCell>
        <mxCell id="sIXqrEJmwhZND9avBSch-17" value="- Tipo : string" style="text;align=left;verticalAlign=top;spacingLeft=4;spacingRight=4;overflow=hidden;rotatable=0;points=[[0,0.5],[1,0.5]];portConstraint=eastwest;" parent="sIXqrEJmwhZND9avBSch-16" vertex="1">
          <mxGeometry y="26" width="200" height="24" as="geometry" />
        </mxCell>
        <mxCell id="3y_pmbWVYnA6BIt8cu6T-0" value="- PagamentosValidos : list&lt;Forma&gt;" style="text;align=left;verticalAlign=top;spacingLeft=4;spacingRight=4;overflow=hidden;rotatable=0;points=[[0,0.5],[1,0.5]];portConstraint=eastwest;" parent="sIXqrEJmwhZND9avBSch-16" vertex="1">
          <mxGeometry y="50" width="200" height="24" as="geometry" />
        </mxCell>
        <mxCell id="kUKSnN2JtTNtcE-FzDpD-1" value="Ordem" style="swimlane;fontStyle=0;align=center;verticalAlign=top;childLayout=stackLayout;horizontal=1;startSize=26;horizontalStack=0;resizeParent=1;resizeLast=0;collapsible=1;marginBottom=0;rounded=0;shadow=0;strokeWidth=1;" parent="WIyWlLk6GJQsqaUBKTNV-1" vertex="1">
          <mxGeometry x="1920" y="608" width="160" height="62" as="geometry">
            <mxRectangle x="550" y="140" width="160" height="26" as="alternateBounds" />
          </mxGeometry>
        </mxCell>
        <mxCell id="na4zE1RvKp3kwFDyWadK-3" value="- CÃ³digo : int" style="text;align=left;verticalAlign=top;spacingLeft=4;spacingRight=4;overflow=hidden;rotatable=0;points=[[0,0.5],[1,0.5]];portConstraint=eastwest;rounded=0;shadow=0;html=0;" parent="kUKSnN2JtTNtcE-FzDpD-1" vertex="1">
          <mxGeometry y="26" width="160" height="26" as="geometry" />
        </mxCell>
        <mxCell id="kUKSnN2JtTNtcE-FzDpD-5" value="" style="line;html=1;strokeWidth=1;align=left;verticalAlign=middle;spacingTop=-1;spacingLeft=3;spacingRight=3;rotatable=0;labelPosition=right;points=[];portConstraint=eastwest;" parent="kUKSnN2JtTNtcE-FzDpD-1" vertex="1">
          <mxGeometry y="52" width="160" height="10" as="geometry" />
        </mxCell>
        <mxCell id="kUKSnN2JtTNtcE-FzDpD-42" style="edgeStyle=orthogonalEdgeStyle;rounded=0;orthogonalLoop=1;jettySize=auto;html=1;strokeWidth=1;endArrow=block;endFill=0;endSize=10;" parent="WIyWlLk6GJQsqaUBKTNV-1" source="kUKSnN2JtTNtcE-FzDpD-6" target="kUKSnN2JtTNtcE-FzDpD-1" edge="1">
          <mxGeometry relative="1" as="geometry">
            <Array as="points">
              <mxPoint x="1895" y="740" />
              <mxPoint x="1995" y="740" />
            </Array>
          </mxGeometry>
        </mxCell>
        <mxCell id="kUKSnN2JtTNtcE-FzDpD-43" style="edgeStyle=orthogonalEdgeStyle;rounded=0;orthogonalLoop=1;jettySize=auto;html=1;strokeWidth=1;endArrow=block;endFill=0;endSize=10;" parent="WIyWlLk6GJQsqaUBKTNV-1" source="kUKSnN2JtTNtcE-FzDpD-8" target="kUKSnN2JtTNtcE-FzDpD-1" edge="1">
          <mxGeometry relative="1" as="geometry">
            <Array as="points">
              <mxPoint x="2083" y="740" />
              <mxPoint x="1995" y="740" />
            </Array>
          </mxGeometry>
        </mxCell>
        <mxCell id="kUKSnN2JtTNtcE-FzDpD-48" style="edgeStyle=orthogonalEdgeStyle;rounded=0;orthogonalLoop=1;jettySize=auto;html=1;strokeWidth=1;endArrow=diamondThin;endFill=1;endSize=12;" parent="WIyWlLk6GJQsqaUBKTNV-1" source="kUKSnN2JtTNtcE-FzDpD-8" target="QEdlRoliwSxRggkisAc3-0" edge="1">
          <mxGeometry relative="1" as="geometry">
            <Array as="points">
              <mxPoint x="2030" y="1010" />
            </Array>
          </mxGeometry>
        </mxCell>
        <mxCell id="kUKSnN2JtTNtcE-FzDpD-50" style="edgeStyle=orthogonalEdgeStyle;rounded=0;orthogonalLoop=1;jettySize=auto;html=1;strokeWidth=1;endArrow=none;endFill=0;endSize=10;" parent="WIyWlLk6GJQsqaUBKTNV-1" source="kUKSnN2JtTNtcE-FzDpD-8" target="4qoAJS4f5IXlfI-FcJuV-1" edge="1">
          <mxGeometry relative="1" as="geometry">
            <Array as="points">
              <mxPoint x="2220" y="782" />
            </Array>
          </mxGeometry>
        </mxCell>
        <mxCell id="kUKSnN2JtTNtcE-FzDpD-8" value="OrdemProduÃ§Ã£o" style="swimlane;fontStyle=0;align=center;verticalAlign=top;childLayout=stackLayout;horizontal=1;startSize=26;horizontalStack=0;resizeParent=1;resizeLast=0;collapsible=1;marginBottom=0;rounded=0;shadow=0;strokeWidth=1;" parent="WIyWlLk6GJQsqaUBKTNV-1" vertex="1">
          <mxGeometry x="2002.5" y="752" width="167.5" height="62" as="geometry">
            <mxRectangle x="550" y="140" width="160" height="26" as="alternateBounds" />
          </mxGeometry>
        </mxCell>
        <mxCell id="kUKSnN2JtTNtcE-FzDpD-9" value="" style="line;html=1;strokeWidth=1;align=left;verticalAlign=middle;spacingTop=-1;spacingLeft=3;spacingRight=3;rotatable=0;labelPosition=right;points=[];portConstraint=eastwest;" parent="kUKSnN2JtTNtcE-FzDpD-8" vertex="1">
          <mxGeometry y="26" width="167.5" height="10" as="geometry" />
        </mxCell>
        <mxCell id="D_1TLd0i7CIZFXxmKJXh-25" value="+checkMateriaPrima() : bool" style="text;align=left;verticalAlign=top;spacingLeft=4;spacingRight=4;overflow=hidden;rotatable=0;points=[[0,0.5],[1,0.5]];portConstraint=eastwest;rounded=0;shadow=0;html=0;" parent="kUKSnN2JtTNtcE-FzDpD-8" vertex="1">
          <mxGeometry y="36" width="167.5" height="26" as="geometry" />
        </mxCell>
        <mxCell id="kUKSnN2JtTNtcE-FzDpD-20" style="edgeStyle=orthogonalEdgeStyle;rounded=0;orthogonalLoop=1;jettySize=auto;html=1;endArrow=block;endFill=0;endSize=10;" parent="WIyWlLk6GJQsqaUBKTNV-1" source="kUKSnN2JtTNtcE-FzDpD-11" target="oOCzSW_UTQTpbfUNsKzi-25" edge="1">
          <mxGeometry relative="1" as="geometry">
            <Array as="points">
              <mxPoint x="1575" y="470" />
              <mxPoint x="1463" y="470" />
            </Array>
          </mxGeometry>
        </mxCell>
        <mxCell id="kUKSnN2JtTNtcE-FzDpD-39" style="edgeStyle=orthogonalEdgeStyle;rounded=0;orthogonalLoop=1;jettySize=auto;html=1;strokeWidth=1;endArrow=none;endFill=0;endSize=12;" parent="WIyWlLk6GJQsqaUBKTNV-1" source="kUKSnN2JtTNtcE-FzDpD-11" target="kUKSnN2JtTNtcE-FzDpD-22" edge="1">
          <mxGeometry relative="1" as="geometry">
            <Array as="points">
              <mxPoint x="1690" y="702" />
            </Array>
          </mxGeometry>
        </mxCell>
        <mxCell id="na4zE1RvKp3kwFDyWadK-5" style="edgeStyle=orthogonalEdgeStyle;rounded=0;orthogonalLoop=1;jettySize=auto;html=1;strokeWidth=1;endArrow=diamondThin;endFill=1;endSize=12;" parent="WIyWlLk6GJQsqaUBKTNV-1" source="kUKSnN2JtTNtcE-FzDpD-11" target="QEdlRoliwSxRggkisAc3-0" edge="1">
          <mxGeometry relative="1" as="geometry">
            <Array as="points">
              <mxPoint x="1575" y="1010" />
            </Array>
          </mxGeometry>
        </mxCell>
        <mxCell id="D_1TLd0i7CIZFXxmKJXh-28" value="1" style="edgeStyle=orthogonalEdgeStyle;rounded=0;orthogonalLoop=1;jettySize=auto;html=1;strokeWidth=1;endArrow=none;endFill=0;endSize=12;" parent="WIyWlLk6GJQsqaUBKTNV-1" source="kUKSnN2JtTNtcE-FzDpD-11" target="D_1TLd0i7CIZFXxmKJXh-10" edge="1">
          <mxGeometry x="-0.9771" y="-16" relative="1" as="geometry">
            <mxPoint as="offset" />
          </mxGeometry>
        </mxCell>
        <mxCell id="kUKSnN2JtTNtcE-FzDpD-11" value="Fornecedor" style="swimlane;fontStyle=0;align=center;verticalAlign=top;childLayout=stackLayout;horizontal=1;startSize=26;horizontalStack=0;resizeParent=1;resizeLast=0;collapsible=1;marginBottom=0;rounded=0;shadow=0;strokeWidth=1;" parent="WIyWlLk6GJQsqaUBKTNV-1" vertex="1">
          <mxGeometry x="1470" y="642" width="210" height="164" as="geometry">
            <mxRectangle x="340" y="380" width="170" height="26" as="alternateBounds" />
          </mxGeometry>
        </mxCell>
        <mxCell id="kUKSnN2JtTNtcE-FzDpD-12" value="PreÃ§os : map&lt;MatÃ©riaPrima*,double&gt;" style="text;align=left;verticalAlign=top;spacingLeft=4;spacingRight=4;overflow=hidden;rotatable=0;points=[[0,0.5],[1,0.5]];portConstraint=eastwest;" parent="kUKSnN2JtTNtcE-FzDpD-11" vertex="1">
          <mxGeometry y="26" width="210" height="26" as="geometry" />
        </mxCell>
        <mxCell id="kUKSnN2JtTNtcE-FzDpD-14" value="" style="line;html=1;strokeWidth=1;align=left;verticalAlign=middle;spacingTop=-1;spacingLeft=3;spacingRight=3;rotatable=0;labelPosition=right;points=[];portConstraint=eastwest;" parent="kUKSnN2JtTNtcE-FzDpD-11" vertex="1">
          <mxGeometry y="52" width="210" height="8" as="geometry" />
        </mxCell>
        <mxCell id="kUKSnN2JtTNtcE-FzDpD-15" value="+ addMatÃ©riaPrima() : void" style="text;align=left;verticalAlign=top;spacingLeft=4;spacingRight=4;overflow=hidden;rotatable=0;points=[[0,0.5],[1,0.5]];portConstraint=eastwest;" parent="kUKSnN2JtTNtcE-FzDpD-11" vertex="1">
          <mxGeometry y="60" width="210" height="26" as="geometry" />
        </mxCell>
        <mxCell id="kUKSnN2JtTNtcE-FzDpD-16" value="+ mudarPreÃ§o() : void" style="text;align=left;verticalAlign=top;spacingLeft=4;spacingRight=4;overflow=hidden;rotatable=0;points=[[0,0.5],[1,0.5]];portConstraint=eastwest;" parent="kUKSnN2JtTNtcE-FzDpD-11" vertex="1">
          <mxGeometry y="86" width="210" height="26" as="geometry" />
        </mxCell>
        <mxCell id="kUKSnN2JtTNtcE-FzDpD-17" value="+ getPreÃ§o() : double" style="text;align=left;verticalAlign=top;spacingLeft=4;spacingRight=4;overflow=hidden;rotatable=0;points=[[0,0.5],[1,0.5]];portConstraint=eastwest;" parent="kUKSnN2JtTNtcE-FzDpD-11" vertex="1">
          <mxGeometry y="112" width="210" height="26" as="geometry" />
        </mxCell>
        <mxCell id="kUKSnN2JtTNtcE-FzDpD-18" value="+ checkMatÃ©riaPrima() : bool" style="text;align=left;verticalAlign=top;spacingLeft=4;spacingRight=4;overflow=hidden;rotatable=0;points=[[0,0.5],[1,0.5]];portConstraint=eastwest;" parent="kUKSnN2JtTNtcE-FzDpD-11" vertex="1">
          <mxGeometry y="138" width="210" height="26" as="geometry" />
        </mxCell>
        <mxCell id="kUKSnN2JtTNtcE-FzDpD-35" style="edgeStyle=orthogonalEdgeStyle;rounded=0;orthogonalLoop=1;jettySize=auto;html=1;endArrow=diamondThin;endFill=0;endSize=12;strokeWidth=1;" parent="WIyWlLk6GJQsqaUBKTNV-1" source="kUKSnN2JtTNtcE-FzDpD-22" target="4qoAJS4f5IXlfI-FcJuV-1" edge="1">
          <mxGeometry relative="1" as="geometry">
            <Array as="points">
              <mxPoint x="1840" y="513" />
              <mxPoint x="1840" y="513" />
            </Array>
          </mxGeometry>
        </mxCell>
        <mxCell id="D_1TLd0i7CIZFXxmKJXh-34" style="edgeStyle=orthogonalEdgeStyle;rounded=0;orthogonalLoop=1;jettySize=auto;html=1;strokeWidth=1;endArrow=diamondThin;endFill=1;endSize=12;" parent="WIyWlLk6GJQsqaUBKTNV-1" source="kUKSnN2JtTNtcE-FzDpD-22" target="QEdlRoliwSxRggkisAc3-0" edge="1">
          <mxGeometry relative="1" as="geometry">
            <Array as="points">
              <mxPoint x="1715" y="940" />
              <mxPoint x="1715" y="940" />
            </Array>
          </mxGeometry>
        </mxCell>
        <mxCell id="kUKSnN2JtTNtcE-FzDpD-22" value="MatÃ©ria Prima" style="swimlane;fontStyle=0;align=center;verticalAlign=top;childLayout=stackLayout;horizontal=1;startSize=26;horizontalStack=0;resizeParent=1;resizeLast=0;collapsible=1;marginBottom=0;rounded=0;shadow=0;strokeWidth=1;" parent="WIyWlLk6GJQsqaUBKTNV-1" vertex="1">
          <mxGeometry x="1600" y="371" width="230" height="242" as="geometry">
            <mxRectangle x="130" y="380" width="160" height="26" as="alternateBounds" />
          </mxGeometry>
        </mxCell>
        <mxCell id="kUKSnN2JtTNtcE-FzDpD-23" value="- Nome : string" style="text;align=left;verticalAlign=top;spacingLeft=4;spacingRight=4;overflow=hidden;rotatable=0;points=[[0,0.5],[1,0.5]];portConstraint=eastwest;" parent="kUKSnN2JtTNtcE-FzDpD-22" vertex="1">
          <mxGeometry y="26" width="230" height="26" as="geometry" />
        </mxCell>
        <mxCell id="D_1TLd0i7CIZFXxmKJXh-0" value="- CÃ³digo : int" style="text;align=left;verticalAlign=top;spacingLeft=4;spacingRight=4;overflow=hidden;rotatable=0;points=[[0,0.5],[1,0.5]];portConstraint=eastwest;" parent="kUKSnN2JtTNtcE-FzDpD-22" vertex="1">
          <mxGeometry y="52" width="230" height="26" as="geometry" />
        </mxCell>
        <mxCell id="kUKSnN2JtTNtcE-FzDpD-24" value="- Unidade : string" style="text;align=left;verticalAlign=top;spacingLeft=4;spacingRight=4;overflow=hidden;rotatable=0;points=[[0,0.5],[1,0.5]];portConstraint=eastwest;rounded=0;shadow=0;html=0;" parent="kUKSnN2JtTNtcE-FzDpD-22" vertex="1">
          <mxGeometry y="78" width="230" height="26" as="geometry" />
        </mxCell>
        <mxCell id="kUKSnN2JtTNtcE-FzDpD-25" value="- Estoque MÃ­nimo : int" style="text;align=left;verticalAlign=top;spacingLeft=4;spacingRight=4;overflow=hidden;rotatable=0;points=[[0,0.5],[1,0.5]];portConstraint=eastwest;rounded=0;shadow=0;html=0;" parent="kUKSnN2JtTNtcE-FzDpD-22" vertex="1">
          <mxGeometry y="104" width="230" height="26" as="geometry" />
        </mxCell>
        <mxCell id="kUKSnN2JtTNtcE-FzDpD-26" value="- Quantidade : int" style="text;align=left;verticalAlign=top;spacingLeft=4;spacingRight=4;overflow=hidden;rotatable=0;points=[[0,0.5],[1,0.5]];portConstraint=eastwest;fontStyle=0" parent="kUKSnN2JtTNtcE-FzDpD-22" vertex="1">
          <mxGeometry y="130" width="230" height="26" as="geometry" />
        </mxCell>
        <mxCell id="kUKSnN2JtTNtcE-FzDpD-31" value="" style="line;html=1;strokeWidth=1;align=left;verticalAlign=middle;spacingTop=-1;spacingLeft=3;spacingRight=3;rotatable=0;labelPosition=right;points=[];portConstraint=eastwest;" parent="kUKSnN2JtTNtcE-FzDpD-22" vertex="1">
          <mxGeometry y="156" width="230" height="8" as="geometry" />
        </mxCell>
        <mxCell id="kUKSnN2JtTNtcE-FzDpD-32" value="+ checkEstoque() : bool" style="text;align=left;verticalAlign=top;spacingLeft=4;spacingRight=4;overflow=hidden;rotatable=0;points=[[0,0.5],[1,0.5]];portConstraint=eastwest;" parent="kUKSnN2JtTNtcE-FzDpD-22" vertex="1">
          <mxGeometry y="164" width="230" height="26" as="geometry" />
        </mxCell>
        <mxCell id="na4zE1RvKp3kwFDyWadK-4" value="+ comparePreÃ§os() : Fornecedor*" style="text;align=left;verticalAlign=top;spacingLeft=4;spacingRight=4;overflow=hidden;rotatable=0;points=[[0,0.5],[1,0.5]];portConstraint=eastwest;" parent="kUKSnN2JtTNtcE-FzDpD-22" vertex="1">
          <mxGeometry y="190" width="230" height="26" as="geometry" />
        </mxCell>
        <mxCell id="kUKSnN2JtTNtcE-FzDpD-33" value="+ Ordem de Compra() : OrdemCompra" style="text;align=left;verticalAlign=top;spacingLeft=4;spacingRight=4;overflow=hidden;rotatable=0;points=[[0,0.5],[1,0.5]];portConstraint=eastwest;rounded=0;shadow=0;html=0;" parent="kUKSnN2JtTNtcE-FzDpD-22" vertex="1">
          <mxGeometry y="216" width="230" height="26" as="geometry" />
        </mxCell>
        <mxCell id="kUKSnN2JtTNtcE-FzDpD-37" value="1..*" style="edgeLabel;resizable=0;html=1;align=left;verticalAlign=top;" parent="WIyWlLk6GJQsqaUBKTNV-1" connectable="0" vertex="1">
          <mxGeometry x="1830" y="492" as="geometry" />
        </mxCell>
        <mxCell id="kUKSnN2JtTNtcE-FzDpD-41" value="1..*" style="edgeLabel;resizable=0;html=1;align=left;verticalAlign=top;" parent="WIyWlLk6GJQsqaUBKTNV-1" connectable="0" vertex="1">
          <mxGeometry x="1670" y="608" as="geometry" />
        </mxCell>
        <mxCell id="D_1TLd0i7CIZFXxmKJXh-3" value="OrÃ§amento" style="swimlane;fontStyle=0;align=center;verticalAlign=top;childLayout=stackLayout;horizontal=1;startSize=26;horizontalStack=0;resizeParent=1;resizeLast=0;collapsible=1;marginBottom=0;rounded=0;shadow=0;strokeWidth=1;" parent="WIyWlLk6GJQsqaUBKTNV-1" vertex="1">
          <mxGeometry x="2110" y="103" width="180" height="82" as="geometry">
            <mxRectangle x="550" y="140" width="160" height="26" as="alternateBounds" />
          </mxGeometry>
        </mxCell>
        <mxCell id="D_1TLd0i7CIZFXxmKJXh-5" value="- Data : Data" style="text;align=left;verticalAlign=top;spacingLeft=4;spacingRight=4;overflow=hidden;rotatable=0;points=[[0,0.5],[1,0.5]];portConstraint=eastwest;" parent="D_1TLd0i7CIZFXxmKJXh-3" vertex="1">
          <mxGeometry y="26" width="180" height="20" as="geometry" />
        </mxCell>
        <mxCell id="D_1TLd0i7CIZFXxmKJXh-7" value="" style="line;html=1;strokeWidth=1;align=left;verticalAlign=middle;spacingTop=-1;spacingLeft=3;spacingRight=3;rotatable=0;labelPosition=right;points=[];portConstraint=eastwest;" parent="D_1TLd0i7CIZFXxmKJXh-3" vertex="1">
          <mxGeometry y="46" width="180" height="10" as="geometry" />
        </mxCell>
        <mxCell id="D_1TLd0i7CIZFXxmKJXh-8" value="+ addPedido() : void" style="text;align=left;verticalAlign=top;spacingLeft=4;spacingRight=4;overflow=hidden;rotatable=0;points=[[0,0.5],[1,0.5]];portConstraint=eastwest;rounded=0;shadow=0;html=0;" parent="D_1TLd0i7CIZFXxmKJXh-3" vertex="1">
          <mxGeometry y="56" width="180" height="26" as="geometry" />
        </mxCell>
        <mxCell id="D_1TLd0i7CIZFXxmKJXh-16" style="edgeStyle=orthogonalEdgeStyle;rounded=0;orthogonalLoop=1;jettySize=auto;html=1;strokeWidth=1;endArrow=block;endFill=0;endSize=12;" parent="WIyWlLk6GJQsqaUBKTNV-1" source="D_1TLd0i7CIZFXxmKJXh-10" target="D_1TLd0i7CIZFXxmKJXh-3" edge="1">
          <mxGeometry relative="1" as="geometry" />
        </mxCell>
        <mxCell id="D_1TLd0i7CIZFXxmKJXh-10" value="OrÃ§amento de Compra" style="swimlane;fontStyle=0;align=center;verticalAlign=top;childLayout=stackLayout;horizontal=1;startSize=26;horizontalStack=0;resizeParent=1;resizeLast=0;collapsible=1;marginBottom=0;rounded=0;shadow=0;strokeWidth=1;" parent="WIyWlLk6GJQsqaUBKTNV-1" vertex="1">
          <mxGeometry x="2010" y="234" width="220" height="58" as="geometry">
            <mxRectangle x="550" y="140" width="160" height="26" as="alternateBounds" />
          </mxGeometry>
        </mxCell>
        <mxCell id="D_1TLd0i7CIZFXxmKJXh-14" value="" style="line;html=1;strokeWidth=1;align=left;verticalAlign=middle;spacingTop=-1;spacingLeft=3;spacingRight=3;rotatable=0;labelPosition=right;points=[];portConstraint=eastwest;" parent="D_1TLd0i7CIZFXxmKJXh-10" vertex="1">
          <mxGeometry y="26" width="220" height="10" as="geometry" />
        </mxCell>
        <mxCell id="D_1TLd0i7CIZFXxmKJXh-23" value="1" style="edgeLabel;resizable=0;html=1;align=left;verticalAlign=top;" parent="WIyWlLk6GJQsqaUBKTNV-1" connectable="0" vertex="1">
          <mxGeometry x="2460" y="1268" as="geometry" />
        </mxCell>
        <mxCell id="kUKSnN2JtTNtcE-FzDpD-6" value="OrdemCompra" style="swimlane;fontStyle=0;align=center;verticalAlign=top;childLayout=stackLayout;horizontal=1;startSize=26;horizontalStack=0;resizeParent=1;resizeLast=0;collapsible=1;marginBottom=0;rounded=0;shadow=0;strokeWidth=1;" parent="WIyWlLk6GJQsqaUBKTNV-1" vertex="1">
          <mxGeometry x="1820" y="752" width="160" height="118" as="geometry">
            <mxRectangle x="550" y="140" width="160" height="26" as="alternateBounds" />
          </mxGeometry>
        </mxCell>
        <mxCell id="D_1TLd0i7CIZFXxmKJXh-32" value="- Codigo MP : int" style="text;align=left;verticalAlign=top;spacingLeft=4;spacingRight=4;overflow=hidden;rotatable=0;points=[[0,0.5],[1,0.5]];portConstraint=eastwest;" parent="kUKSnN2JtTNtcE-FzDpD-6" vertex="1">
          <mxGeometry y="26" width="160" height="26" as="geometry" />
        </mxCell>
        <mxCell id="D_1TLd0i7CIZFXxmKJXh-31" value="&amp;nbsp;- Quantidade: int" style="text;html=1;resizable=0;autosize=1;align=left;verticalAlign=middle;points=[];fillColor=none;strokeColor=none;rounded=0;" parent="kUKSnN2JtTNtcE-FzDpD-6" vertex="1">
          <mxGeometry y="52" width="160" height="30" as="geometry" />
        </mxCell>
        <mxCell id="kUKSnN2JtTNtcE-FzDpD-7" value="" style="line;html=1;strokeWidth=1;align=left;verticalAlign=middle;spacingTop=-1;spacingLeft=3;spacingRight=3;rotatable=0;labelPosition=right;points=[];portConstraint=eastwest;" parent="kUKSnN2JtTNtcE-FzDpD-6" vertex="1">
          <mxGeometry y="82" width="160" height="10" as="geometry" />
        </mxCell>
        <mxCell id="D_1TLd0i7CIZFXxmKJXh-30" value="+SolicitarOrÃ§amento() : void" style="text;align=left;verticalAlign=top;spacingLeft=4;spacingRight=4;overflow=hidden;rotatable=0;points=[[0,0.5],[1,0.5]];portConstraint=eastwest;rounded=0;shadow=0;html=0;" parent="kUKSnN2JtTNtcE-FzDpD-6" vertex="1">
          <mxGeometry y="92" width="160" height="26" as="geometry" />
        </mxCell>
        <mxCell id="7Lx4RhFuK1xh1PYqf9uY-33" value="1" style="edgeStyle=orthogonalEdgeStyle;rounded=0;orthogonalLoop=1;jettySize=auto;html=1;endArrow=none;endFill=0;endSize=12;" edge="1" parent="WIyWlLk6GJQsqaUBKTNV-1" source="7Lx4RhFuK1xh1PYqf9uY-0" target="7Lx4RhFuK1xh1PYqf9uY-6">
          <mxGeometry x="0.854" y="10" relative="1" as="geometry">
            <Array as="points">
              <mxPoint x="620" y="453" />
            </Array>
            <mxPoint as="offset" />
          </mxGeometry>
        </mxCell>
        <mxCell id="7Lx4RhFuK1xh1PYqf9uY-0" value="Rota" style="swimlane;fontStyle=0;align=center;verticalAlign=top;childLayout=stackLayout;horizontal=1;startSize=26;horizontalStack=0;resizeParent=1;resizeLast=0;collapsible=1;marginBottom=0;rounded=0;shadow=0;strokeWidth=1;" vertex="1" parent="WIyWlLk6GJQsqaUBKTNV-1">
          <mxGeometry x="700" y="371" width="230" height="216" as="geometry">
            <mxRectangle x="340" y="380" width="170" height="26" as="alternateBounds" />
          </mxGeometry>
        </mxCell>
        <mxCell id="7Lx4RhFuK1xh1PYqf9uY-1" value="- Tempo Total : float" style="text;align=left;verticalAlign=top;spacingLeft=4;spacingRight=4;overflow=hidden;rotatable=0;points=[[0,0.5],[1,0.5]];portConstraint=eastwest;" vertex="1" parent="7Lx4RhFuK1xh1PYqf9uY-0">
          <mxGeometry y="26" width="230" height="26" as="geometry" />
        </mxCell>
        <mxCell id="7Lx4RhFuK1xh1PYqf9uY-2" value="- DistÃ¢ncia Total : float" style="text;align=left;verticalAlign=top;spacingLeft=4;spacingRight=4;overflow=hidden;rotatable=0;points=[[0,0.5],[1,0.5]];portConstraint=eastwest;" vertex="1" parent="7Lx4RhFuK1xh1PYqf9uY-0">
          <mxGeometry y="52" width="230" height="26" as="geometry" />
        </mxCell>
        <mxCell id="7Lx4RhFuK1xh1PYqf9uY-4" value="- CoordenadasEmpresa: pair&lt;float,float&gt;" style="text;align=left;verticalAlign=top;spacingLeft=4;spacingRight=4;overflow=hidden;rotatable=0;points=[[0,0.5],[1,0.5]];portConstraint=eastwest;" vertex="1" parent="7Lx4RhFuK1xh1PYqf9uY-0">
          <mxGeometry y="78" width="230" height="26" as="geometry" />
        </mxCell>
        <mxCell id="7Lx4RhFuK1xh1PYqf9uY-3" value="" style="line;html=1;strokeWidth=1;align=left;verticalAlign=middle;spacingTop=-1;spacingLeft=3;spacingRight=3;rotatable=0;labelPosition=right;points=[];portConstraint=eastwest;" vertex="1" parent="7Lx4RhFuK1xh1PYqf9uY-0">
          <mxGeometry y="104" width="230" height="8" as="geometry" />
        </mxCell>
        <mxCell id="7Lx4RhFuK1xh1PYqf9uY-11" value="+ CalculaDistÃ¢ncia () : void" style="text;align=left;verticalAlign=top;spacingLeft=4;spacingRight=4;overflow=hidden;rotatable=0;points=[[0,0.5],[1,0.5]];portConstraint=eastwest;" vertex="1" parent="7Lx4RhFuK1xh1PYqf9uY-0">
          <mxGeometry y="112" width="230" height="26" as="geometry" />
        </mxCell>
        <mxCell id="7Lx4RhFuK1xh1PYqf9uY-12" value="+ CalculaTempo () : void" style="text;align=left;verticalAlign=top;spacingLeft=4;spacingRight=4;overflow=hidden;rotatable=0;points=[[0,0.5],[1,0.5]];portConstraint=eastwest;" vertex="1" parent="7Lx4RhFuK1xh1PYqf9uY-0">
          <mxGeometry y="138" width="230" height="26" as="geometry" />
        </mxCell>
        <mxCell id="7Lx4RhFuK1xh1PYqf9uY-35" value="1" style="edgeStyle=orthogonalEdgeStyle;rounded=0;orthogonalLoop=1;jettySize=auto;html=1;endArrow=none;endFill=0;endSize=12;" edge="1" parent="WIyWlLk6GJQsqaUBKTNV-1" source="7Lx4RhFuK1xh1PYqf9uY-6" target="7Lx4RhFuK1xh1PYqf9uY-21">
          <mxGeometry x="-0.9705" y="12" relative="1" as="geometry">
            <Array as="points">
              <mxPoint x="592" y="240" />
            </Array>
            <mxPoint as="offset" />
          </mxGeometry>
        </mxCell>
        <mxCell id="7Lx4RhFuK1xh1PYqf9uY-37" style="edgeStyle=orthogonalEdgeStyle;rounded=0;orthogonalLoop=1;jettySize=auto;html=1;endArrow=diamondThin;endFill=1;endSize=12;" edge="1" parent="WIyWlLk6GJQsqaUBKTNV-1" source="7Lx4RhFuK1xh1PYqf9uY-6" target="QEdlRoliwSxRggkisAc3-0">
          <mxGeometry relative="1" as="geometry">
            <Array as="points">
              <mxPoint x="592" y="790" />
              <mxPoint x="870" y="790" />
              <mxPoint x="870" y="1200" />
            </Array>
          </mxGeometry>
        </mxCell>
        <mxCell id="7Lx4RhFuK1xh1PYqf9uY-6" value="VeÃ­culo" style="swimlane;fontStyle=0;align=center;verticalAlign=top;childLayout=stackLayout;horizontal=1;startSize=26;horizontalStack=0;resizeParent=1;resizeLast=0;collapsible=1;marginBottom=0;rounded=0;shadow=0;strokeWidth=1;" vertex="1" parent="WIyWlLk6GJQsqaUBKTNV-1">
          <mxGeometry x="505" y="510" width="185" height="216" as="geometry">
            <mxRectangle x="340" y="380" width="170" height="26" as="alternateBounds" />
          </mxGeometry>
        </mxCell>
        <mxCell id="7Lx4RhFuK1xh1PYqf9uY-7" value="- Placa : string" style="text;align=left;verticalAlign=top;spacingLeft=4;spacingRight=4;overflow=hidden;rotatable=0;points=[[0,0.5],[1,0.5]];portConstraint=eastwest;" vertex="1" parent="7Lx4RhFuK1xh1PYqf9uY-6">
          <mxGeometry y="26" width="185" height="26" as="geometry" />
        </mxCell>
        <mxCell id="7Lx4RhFuK1xh1PYqf9uY-8" value="- Capacidade : int" style="text;align=left;verticalAlign=top;spacingLeft=4;spacingRight=4;overflow=hidden;rotatable=0;points=[[0,0.5],[1,0.5]];portConstraint=eastwest;" vertex="1" parent="7Lx4RhFuK1xh1PYqf9uY-6">
          <mxGeometry y="52" width="185" height="26" as="geometry" />
        </mxCell>
        <mxCell id="7Lx4RhFuK1xh1PYqf9uY-9" value="- Velocidade : static float" style="text;align=left;verticalAlign=top;spacingLeft=4;spacingRight=4;overflow=hidden;rotatable=0;points=[[0,0.5],[1,0.5]];portConstraint=eastwest;" vertex="1" parent="7Lx4RhFuK1xh1PYqf9uY-6">
          <mxGeometry y="78" width="185" height="26" as="geometry" />
        </mxCell>
        <mxCell id="7Lx4RhFuK1xh1PYqf9uY-10" value="" style="line;html=1;strokeWidth=1;align=left;verticalAlign=middle;spacingTop=-1;spacingLeft=3;spacingRight=3;rotatable=0;labelPosition=right;points=[];portConstraint=eastwest;" vertex="1" parent="7Lx4RhFuK1xh1PYqf9uY-6">
          <mxGeometry y="104" width="185" height="8" as="geometry" />
        </mxCell>
        <mxCell id="7Lx4RhFuK1xh1PYqf9uY-19" value="+ checkCapacidade () : bool" style="text;align=left;verticalAlign=top;spacingLeft=4;spacingRight=4;overflow=hidden;rotatable=0;points=[[0,0.5],[1,0.5]];portConstraint=eastwest;" vertex="1" parent="7Lx4RhFuK1xh1PYqf9uY-6">
          <mxGeometry y="112" width="185" height="26" as="geometry" />
        </mxCell>
        <mxCell id="7Lx4RhFuK1xh1PYqf9uY-13" value="+ addFuncionarios() : void" style="text;align=left;verticalAlign=top;spacingLeft=4;spacingRight=4;overflow=hidden;rotatable=0;points=[[0,0.5],[1,0.5]];portConstraint=eastwest;" vertex="1" parent="7Lx4RhFuK1xh1PYqf9uY-6">
          <mxGeometry y="138" width="185" height="26" as="geometry" />
        </mxCell>
        <mxCell id="7Lx4RhFuK1xh1PYqf9uY-14" value="+ removeFuncionarios() : void" style="text;align=left;verticalAlign=top;spacingLeft=4;spacingRight=4;overflow=hidden;rotatable=0;points=[[0,0.5],[1,0.5]];portConstraint=eastwest;" vertex="1" parent="7Lx4RhFuK1xh1PYqf9uY-6">
          <mxGeometry y="164" width="185" height="26" as="geometry" />
        </mxCell>
        <mxCell id="7Lx4RhFuK1xh1PYqf9uY-40" value="+ setHorariosEmbarque() : void" style="text;align=left;verticalAlign=top;spacingLeft=4;spacingRight=4;overflow=hidden;rotatable=0;points=[[0,0.5],[1,0.5]];portConstraint=eastwest;" vertex="1" parent="7Lx4RhFuK1xh1PYqf9uY-6">
          <mxGeometry y="190" width="185" height="26" as="geometry" />
        </mxCell>
        <mxCell id="7Lx4RhFuK1xh1PYqf9uY-21" value="Turno" style="swimlane;fontStyle=0;align=center;verticalAlign=top;childLayout=stackLayout;horizontal=1;startSize=26;horizontalStack=0;resizeParent=1;resizeLast=0;collapsible=1;marginBottom=0;rounded=0;shadow=0;strokeWidth=1;" vertex="1" parent="WIyWlLk6GJQsqaUBKTNV-1">
          <mxGeometry x="1000" y="181" width="230" height="216" as="geometry">
            <mxRectangle x="340" y="380" width="170" height="26" as="alternateBounds" />
          </mxGeometry>
        </mxCell>
        <mxCell id="7Lx4RhFuK1xh1PYqf9uY-22" value="- PerÃ­odo : string" style="text;align=left;verticalAlign=top;spacingLeft=4;spacingRight=4;overflow=hidden;rotatable=0;points=[[0,0.5],[1,0.5]];portConstraint=eastwest;" vertex="1" parent="7Lx4RhFuK1xh1PYqf9uY-21">
          <mxGeometry y="26" width="230" height="26" as="geometry" />
        </mxCell>
        <mxCell id="7Lx4RhFuK1xh1PYqf9uY-23" value="- HorÃ¡rio Entrada : pair&lt;int,int&gt;" style="text;align=left;verticalAlign=top;spacingLeft=4;spacingRight=4;overflow=hidden;rotatable=0;points=[[0,0.5],[1,0.5]];portConstraint=eastwest;" vertex="1" parent="7Lx4RhFuK1xh1PYqf9uY-21">
          <mxGeometry y="52" width="230" height="26" as="geometry" />
        </mxCell>
        <mxCell id="7Lx4RhFuK1xh1PYqf9uY-24" value="- HorÃ¡rio SaÃ­da : pair&lt;int,int&gt;" style="text;align=left;verticalAlign=top;spacingLeft=4;spacingRight=4;overflow=hidden;rotatable=0;points=[[0,0.5],[1,0.5]];portConstraint=eastwest;" vertex="1" parent="7Lx4RhFuK1xh1PYqf9uY-21">
          <mxGeometry y="78" width="230" height="26" as="geometry" />
        </mxCell>
        <mxCell id="7Lx4RhFuK1xh1PYqf9uY-25" value="" style="line;html=1;strokeWidth=1;align=left;verticalAlign=middle;spacingTop=-1;spacingLeft=3;spacingRight=3;rotatable=0;labelPosition=right;points=[];portConstraint=eastwest;" vertex="1" parent="7Lx4RhFuK1xh1PYqf9uY-21">
          <mxGeometry y="104" width="230" height="8" as="geometry" />
        </mxCell>
        <mxCell id="7Lx4RhFuK1xh1PYqf9uY-28" value="+ addFuncionarios() : void" style="text;align=left;verticalAlign=top;spacingLeft=4;spacingRight=4;overflow=hidden;rotatable=0;points=[[0,0.5],[1,0.5]];portConstraint=eastwest;" vertex="1" parent="7Lx4RhFuK1xh1PYqf9uY-21">
          <mxGeometry y="112" width="230" height="26" as="geometry" />
        </mxCell>
        <mxCell id="7Lx4RhFuK1xh1PYqf9uY-29" value="+ removeFuncionarios() : void" style="text;align=left;verticalAlign=top;spacingLeft=4;spacingRight=4;overflow=hidden;rotatable=0;points=[[0,0.5],[1,0.5]];portConstraint=eastwest;" vertex="1" parent="7Lx4RhFuK1xh1PYqf9uY-21">
          <mxGeometry y="138" width="230" height="26" as="geometry" />
        </mxCell>
        <mxCell id="7Lx4RhFuK1xh1PYqf9uY-26" value="+ setEntrada () : void" style="text;align=left;verticalAlign=top;spacingLeft=4;spacingRight=4;overflow=hidden;rotatable=0;points=[[0,0.5],[1,0.5]];portConstraint=eastwest;" vertex="1" parent="7Lx4RhFuK1xh1PYqf9uY-21">
          <mxGeometry y="164" width="230" height="26" as="geometry" />
        </mxCell>
        <mxCell id="7Lx4RhFuK1xh1PYqf9uY-27" value="+ setSaÃ­da () : void" style="text;align=left;verticalAlign=top;spacingLeft=4;spacingRight=4;overflow=hidden;rotatable=0;points=[[0,0.5],[1,0.5]];portConstraint=eastwest;" vertex="1" parent="7Lx4RhFuK1xh1PYqf9uY-21">
          <mxGeometry y="190" width="230" height="26" as="geometry" />
        </mxCell>
        <mxCell id="7Lx4RhFuK1xh1PYqf9uY-32" value="0..*" style="text;html=1;align=center;verticalAlign=middle;resizable=0;points=[];autosize=1;strokeColor=none;fillColor=none;" vertex="1" parent="WIyWlLk6GJQsqaUBKTNV-1">
          <mxGeometry x="1030" y="752" width="40" height="30" as="geometry" />
        </mxCell>
        <mxCell id="7Lx4RhFuK1xh1PYqf9uY-36" value="0..*" style="text;html=1;align=center;verticalAlign=middle;resizable=0;points=[];autosize=1;strokeColor=none;fillColor=none;" vertex="1" parent="WIyWlLk6GJQsqaUBKTNV-1">
          <mxGeometry x="960" y="210" width="40" height="30" as="geometry" />
        </mxCell>
      </root>
    </mxGraphModel>
  </diagram>
</mxfile>
